<svg width="120" height="32" viewBox="0 0 120 32" fill="none" xmlns="http://www.w3.org/2000/svg">
  <rect x="0" y="6" width="32" height="20" rx="4" fill="#A855F7"/>
  <path d="M4 10C4 8.89543 4.89543 8 6 8H18C19.1046 8 20 8.89543 20 10V10C20 11.1046 19.1046 12 18 12H6C4.89543 12 4 11.1046 4 10V10Z" fill="white"/>
  <path d="M6 16C6 14.8954 6.89543 14 8 14H18C19.1046 14 20 14.8954 20 16V16C20 17.1046 19.1046 18 18 18H8C6.89543 18 6 17.1046 6 16V16Z" fill="white" opacity="0.9"/>
  <path d="M8 22C8 20.8954 8.89543 20 10 20H18C19.1046 20 20 20.8954 20 22V22C20 23.1046 19.1046 24 18 24H10C8.89543 24 8 23.1046 8 22V22Z" fill="white" opacity="0.8"/>
  <text x="36" y="21" font-family="system-ui, -apple-system, sans-serif" font-size="18" font-weight="600" fill="#ffffff">Slide</text>
</svg> 