<svg width="2007" height="681" viewBox="0 0 2007 681" fill="none" xmlns="http://www.w3.org/2000/svg">
<g clip-path="url(#clip0_105_244)">
<path d="M1199.79 257.752L1256.79 160.752L1762.29 65.7517L1795.79 75.2517L1823.79 97.7517L1945.29 340.252L1949.79 365.252L1912.29 480.752L1874.29 512.252L1352.79 612.752L1321.79 586.752L1199.79 330.752V257.752Z" fill="#FF55A4"/>
<path d="M1190.56 276.18C1189.18 279.84 1187.61 283.41 1186.99 287.249C1186.81 288.186 1186.23 288.677 1185.56 288.811C1185.16 290.105 1184.76 291.355 1184.4 292.604C1176.81 318.267 1179.49 345.894 1191.67 369.728L1294.01 569.409C1323.16 627.787 1370.47 613.996 1370.47 613.996L1190.56 276.18Z" fill="#171A1F"/>
<path d="M1946.12 328.756C1939.61 316.259 1933.09 303.807 1926.62 291.31C1923.01 285.954 1920.24 280.152 1917.03 274.528C1913.5 268.325 1910.15 261.942 1906.4 255.917C1902.65 249.892 1899.53 243.599 1896.72 237.127C1895.2 233.691 1893.82 230.165 1892.12 226.773C1890.74 223.961 1889.04 221.328 1888.37 218.203C1888.28 217.846 1888.28 217.489 1888.37 217.177C1888.19 217.043 1888.06 216.909 1887.93 216.731C1885.69 213.696 1884.4 210.17 1882.48 207.001C1880.47 203.743 1878.29 200.663 1876.46 197.316C1873.11 191.201 1870.79 184.596 1866.99 178.749C1863.15 172.902 1860.3 166.833 1858.02 160.182C1853.47 146.927 1847.31 134.252 1839.23 122.781C1838.43 121.621 1838.92 120.505 1839.86 119.925C1838.03 117.024 1836.2 114.123 1834.37 111.222C1833.43 109.749 1834.06 109.347 1835.35 108.99C1832.05 103.411 1829.46 96.6718 1825.58 91.4499C1815.89 81.0508 1805.04 72.1691 1791.66 66.858C1789.33 66.0546 1787.01 65.2959 1784.69 64.4925C1784.34 64.7603 1783.93 64.8942 1783.44 64.8942C1778.49 64.8049 1773.67 63.1982 1768.85 62.2609C1768.67 62.2163 1768.49 62.1717 1768.36 62.0824C1766.26 62.2163 1764.12 62.4394 1762.02 62.5733C1751.93 63.1535 1742.61 66.7241 1732.88 69.1342C1732.25 69.3127 1731.67 69.1788 1731.22 68.911C1731.27 69.5805 1730.91 70.2946 1730.06 70.6963C1722.7 74.2222 1714.17 74.7131 1706.14 75.2933C1697.62 75.9182 1689.32 78.239 1680.79 78.6407C1679.63 78.6853 1678.96 78.0158 1678.74 77.1232C1675.21 77.9266 1671.73 78.6853 1668.2 79.6672C1662.76 81.1847 1657.36 82.6129 1651.74 83.1931C1651.56 83.1931 1651.42 83.1931 1651.29 83.1931C1651.11 83.8626 1650.62 84.3981 1649.77 84.6213C1637.23 88.0133 1624.55 91.4946 1611.48 91.5838C1610.63 91.5838 1610.01 91.1821 1609.69 90.6466C1607.24 91.316 1604.83 91.9855 1602.42 92.7889C1601.66 93.0567 1600.99 92.8781 1600.54 92.4764C1597.95 92.8335 1595.37 92.9674 1592.78 93.1906C1589.16 93.503 1585.59 94.4849 1582.11 95.3775C1575.37 97.1181 1568.68 99.0819 1561.94 100.912C1561.71 101.046 1561.49 101.135 1561.22 101.18C1549.98 103.277 1538.42 104.125 1527.3 106.848C1522.48 108.053 1517.71 109.481 1512.8 110.418C1507.8 111.4 1502.76 111.98 1497.71 112.918C1492.76 113.855 1487.71 114.524 1482.76 115.417C1477.72 116.31 1472.72 117.515 1467.68 118.407C1462.85 119.255 1457.99 118.764 1453.17 119.166C1448.04 119.612 1442.95 120.416 1437.86 121.442C1431.3 122.737 1424.78 124.299 1418.22 125.638C1414.7 126.709 1411.08 127.557 1407.29 127.601C1407.15 127.601 1407.02 127.601 1406.89 127.557C1401.98 129.297 1396.98 130.681 1391.76 130.904C1390.82 130.949 1390.19 130.502 1389.84 129.878C1362.61 134.787 1335.48 140.054 1308.21 144.651C1287.45 148.132 1266.16 149.962 1247.24 160.629C1246.66 161.432 1245.9 161.923 1244.92 162.012C1244.83 162.28 1244.65 162.369 1244.43 162.235C1243.22 163.842 1241.48 164.779 1239.74 165.672C1239.56 166.342 1239.07 166.565 1238.49 166.654C1233.58 170.983 1229.25 175.848 1225.19 181.025C1224.79 181.695 1224.43 182.364 1224.03 183.034C1222.69 187.14 1221.13 191.157 1219.08 194.995C1219.03 196.691 1218.41 198.164 1217.52 199.592C1217.52 199.637 1217.47 199.681 1217.47 199.726C1217.65 200.529 1217.47 201.422 1216.85 202.002C1213.68 213.517 1209.62 224.72 1206 236.101C1200.69 252.971 1194.71 269.664 1190.25 286.847C1185.96 303.271 1187.48 318.624 1194.84 333.799C1198.95 342.279 1202.65 350.937 1207.03 359.328C1233.49 409.806 1257.59 461.445 1284.11 511.923C1292.18 527.321 1300.04 542.898 1307.94 558.429C1318.03 578.246 1334.67 589.136 1355.92 593.867C1357.97 594.313 1360.07 594.759 1362.57 594.045C1360.78 591.367 1357.7 590.921 1355.47 588.689C1358.33 589.136 1360.74 589.582 1363.19 589.894C1364.71 590.073 1366.94 589.448 1366.63 588.065C1365.29 582.709 1370.11 584.583 1372.03 583.021C1371.99 581.504 1370.42 582.218 1369.8 581.548C1368.64 581.459 1367.43 581.37 1366.27 581.281C1357.3 579.54 1349.67 575.345 1343.33 568.828L1343.51 568.605L1343.29 568.828C1337.53 564.633 1334.09 558.563 1329.99 552.94C1329.5 552.27 1329.45 551.645 1329.99 550.976C1330.84 549.86 1331.55 550.753 1332.17 551.154C1334.94 552.85 1337.44 555.082 1339.98 557.046C1345.3 561.152 1351.59 562.892 1357.35 565.927C1358.95 566.775 1360.96 567.579 1362.17 565.035C1358.37 563.026 1354.76 560.839 1351.37 558.206C1344.94 554.145 1338.2 550.351 1335.7 542.273C1343.64 548.923 1352.84 553.118 1362.08 557.358C1363.19 557.715 1364.26 558.028 1365.38 558.385C1366.09 558.117 1366.72 558.251 1367.17 558.876C1367.75 558.965 1368.28 559.054 1368.86 559.188C1369.58 559.01 1370.16 559.188 1370.65 559.724C1371.23 559.858 1371.76 559.947 1372.34 560.081C1374.98 559.991 1377.61 559.947 1380.24 559.858L1381.27 559.411L1381.89 557.314L1381.8 557.224C1368.82 557.001 1359.35 548.789 1349.04 542.585C1345.56 540.487 1342.84 537.452 1340.21 534.328C1338.65 532.498 1338.33 531.159 1339.94 528.972C1341.77 534.685 1346.5 537.185 1351.37 539.282C1361.23 543.478 1370.87 548.343 1381.45 550.663C1383.32 551.065 1385.15 551.422 1387.03 550.753C1386.8 550.217 1386.58 549.682 1386.31 549.101C1383.63 549.949 1381.45 548.878 1379.39 547.361C1378.68 547.539 1378.06 547.361 1377.56 546.78C1372.74 546.78 1369.44 543.478 1365.78 541.112C1360.16 537.497 1354.09 534.328 1349.62 529.151C1348.73 528.08 1347.44 527.232 1347.57 525.313C1356.9 529.865 1365.47 535.667 1375.11 539.282C1376.72 540.22 1378.41 540.577 1380.24 540.487C1381.13 540.264 1381.94 540.443 1382.61 541.023C1383.28 541.112 1383.9 541.202 1384.57 541.291C1385.37 540.978 1386.13 540.621 1387.65 539.997C1377.3 537.185 1368.5 532.454 1360.29 526.473C1370.74 531.293 1381.4 535.355 1392.38 538.613C1395.06 536.292 1393.05 535.667 1391.09 535.042C1385.2 533.168 1379.53 530.892 1374.66 526.964C1368.37 524.286 1363.1 520.135 1358.1 515.494C1357.26 514.69 1357.12 514.244 1357.7 513.619C1358.46 512.771 1358.77 513.842 1359.31 514.155C1371.05 521.474 1383.54 526.339 1397.65 525.982C1398.41 525.223 1399.97 525.625 1400.28 523.929C1392.07 522.724 1384.04 520.983 1376.72 516.922C1372.92 516.342 1369.89 514.378 1367.21 511.7C1366.41 510.897 1365.34 510.093 1366.14 508.754C1366.94 507.416 1368.19 508.085 1369.26 508.397C1370.65 508.754 1372.12 509.022 1373.1 510.227C1376.67 510.093 1380.29 512.013 1383.81 510.004C1380.55 508.085 1376.89 506.568 1375.42 501.569C1380.02 503.086 1383.68 505.05 1387.2 507.371C1387.83 507.46 1388.41 507.549 1389.03 507.639C1390.51 503.711 1386.36 504.559 1384.71 502.64C1387.74 502.729 1390.19 503.488 1392.43 504.916C1393.05 504.872 1393.72 504.827 1394.35 504.782C1394.3 504.47 1394.35 504.202 1394.52 503.979C1394.17 503.666 1393.77 503.354 1393.41 503.042C1383.72 496.481 1372.21 492.464 1364.8 482.69C1370.33 485.189 1375.2 488.849 1380.78 491.214C1384.79 492.91 1388.72 494.829 1393.01 495.677C1394.26 495.945 1395.86 496.034 1396.31 494.472C1396.71 492.955 1395.15 492.91 1394.17 492.33C1389.66 489.563 1385.29 486.662 1380.82 483.85C1380.11 483.404 1379.48 483.091 1380.15 482.333C1380.55 481.931 1381.18 481.663 1382.03 482.243C1383.63 483.359 1385.55 483.984 1387.25 485.055C1395.82 490.411 1405.64 490.188 1415.14 491.17C1416.84 490.5 1418.31 489.741 1416.84 487.599C1414.3 487.956 1412.02 487.197 1409.83 486.037C1398.45 482.913 1387.25 479.476 1378.41 471.041C1373.32 467.336 1368.86 463.007 1365.2 457.919C1364.98 457.651 1364.75 457.384 1364.53 457.071C1359.8 453.099 1357.52 447.565 1354.8 442.254C1353.73 441.673 1353.24 440.691 1353.15 439.531C1352.08 438.638 1351.59 437.433 1351.32 436.094C1349.76 435.023 1348.96 433.506 1348.78 431.676C1340.48 418.376 1334.36 403.96 1327.71 389.812C1327.35 389.722 1327.26 389.499 1327.4 389.142C1319.45 373.7 1311.55 358.212 1303.57 342.77C1293.52 323.4 1283.44 304.03 1273.39 284.66C1272.46 282.874 1271.48 281.089 1271.21 279.036C1271.07 278.813 1270.94 278.545 1270.81 278.322C1269.65 276.581 1268.71 274.751 1268.35 272.654C1267.55 272.074 1267.19 271.27 1267.28 270.288L1262.41 259.309V259.264C1262.41 259.22 1262.41 259.22 1262.37 259.175C1262.01 258.149 1261.7 257.167 1261.34 256.14C1259.07 252.391 1257.33 248.419 1256.21 244.179C1255.68 243.063 1255.1 241.992 1254.56 240.876C1251.79 239.716 1249.07 238.511 1251.88 234.806C1252.19 234.405 1251.79 233.467 1251.7 232.798C1251.48 232.352 1251.26 231.861 1251.03 231.414C1235.46 206.287 1243.63 178.08 1264.47 163.619C1266.34 162.325 1268.53 161.209 1270.72 160.763C1281.03 158.71 1291.43 156.924 1301.78 155.05C1302.36 154.916 1302.9 154.782 1303.48 154.603C1304.28 154.068 1305.13 153.755 1306.11 154.068L1307.89 153.755C1308.97 153.086 1310.13 152.952 1311.33 152.997C1311.91 152.907 1312.49 152.863 1313.07 152.774C1315.62 151.836 1318.2 151.39 1320.88 151.524C1321.77 151.345 1322.62 151.167 1323.52 150.944C1329.45 149.025 1329.9 149.114 1332.4 154.47C1333.47 156.746 1335.25 157.772 1337.53 158.486C1347.53 161.566 1357.35 159.379 1367.21 157.594C1375.6 156.076 1383.99 154.47 1392.38 152.952C1392.96 152.863 1393.5 152.729 1394.08 152.64C1396.62 151.613 1399.26 151.078 1401.98 151.122C1402.56 151.033 1403.14 150.988 1403.72 150.899C1405.59 149.739 1407.74 149.694 1409.88 149.471L1411.62 149.292C1412.11 148.757 1412.69 148.667 1413.36 148.98C1414.47 148.489 1415.59 148.043 1416.8 148.355C1417.33 147.909 1417.87 147.596 1418.58 147.998C1419.16 147.864 1419.74 147.775 1420.32 147.641C1439.69 143.178 1459.24 139.607 1478.79 135.948C1523.55 127.601 1568.27 118.943 1612.68 108.633C1613.93 108.365 1615.27 108.365 1616.52 108.231C1624.42 106.223 1632.28 104.215 1640.18 102.206L1643.48 100.867C1643.48 100.555 1643.61 100.376 1643.92 100.287C1643.08 97.6983 1641.11 98.948 1639.55 99.1265C1617.68 101.894 1596.17 106.848 1574.43 110.597C1553.28 114.212 1532.17 118.184 1511.06 121.933C1484.72 126.62 1458.35 131.35 1431.97 135.948C1416.84 138.581 1401.67 141.08 1386.36 142.464C1384.84 142.598 1383.32 142.464 1380.55 142.464C1385.95 140.411 1390.46 139.607 1395.02 139.027C1405.37 137.644 1415.5 135.144 1425.72 133.448C1438.35 131.395 1450.8 128.717 1463.39 126.53C1498.43 120.505 1533.33 113.944 1568.32 107.651C1591.3 103.545 1614.25 99.1712 1637.14 94.4849C1638.66 94.1724 1640.31 94.2171 1641.87 94.1278C1643.66 92.655 1645.62 91.8516 1647.94 92.2087C1649.86 91.2268 1651.87 90.6019 1654.1 90.7804L1656.6 90.2895C1668.47 87.7455 1680.34 85.2015 1692.22 82.7021C1695.92 81.9434 1699.63 81.3632 1703.33 80.6045C1704.76 80.3367 1706.1 79.935 1707.61 81.14C1705.69 83.3716 1703.24 84.2196 1700.83 85.0676C1695.07 87.076 1689.32 89.0398 1683.6 91.0929C1682.75 91.4053 1681.28 91.5838 1681.82 93.012C1682.13 93.9047 1683.25 93.7261 1684.14 93.6815C1698.42 93.1013 1712.43 91.807 1724.66 82.9699C1728.68 80.0689 1734.21 80.0689 1738.86 78.0605C1740.73 77.2571 1742.92 76.9447 1744.79 75.7843C1754.34 69.8036 1764.88 70.6963 1775.23 72.2584C1791.88 74.7577 1805.98 82.1666 1816.51 95.6453L1816.47 95.6006C1816.83 95.9131 1817.14 96.1809 1817.5 96.4933L1817.45 96.4487C1820.84 99.2604 1823.48 102.697 1825.4 106.625C1848.56 154.068 1871.59 201.6 1894.98 248.954C1907.83 274.975 1921.35 300.638 1934.57 326.479C1935.15 327.595 1935.5 328.89 1935.95 330.05C1936.8 330.809 1937.15 331.791 1937.33 332.862C1944.92 345.894 1948.27 359.284 1942.73 374.28C1934.52 396.729 1927.07 419.447 1919.26 442.03C1918.01 445.69 1914.48 447.743 1912.74 451.091L1912.65 451.269L1912.7 451.492L1912.47 451.581C1912.43 452.162 1912.34 452.742 1912.29 453.367C1913.86 453.724 1916.76 452.653 1915.6 456.045C1911.58 467.738 1908.59 480.056 1898.59 488.626C1890.78 495.32 1882.57 501.39 1872.08 503.354C1871.5 503.488 1870.92 503.622 1870.39 503.756C1855.3 509.335 1839.72 513.218 1823.97 516.476C1820.84 517.145 1820.8 515.94 1820.98 513.262C1821.38 507.773 1823.7 502.908 1825.4 497.864C1832.4 476.664 1839.86 455.643 1846.55 434.354C1849.72 424.267 1856.28 417.929 1865.12 413.154C1870.79 408.78 1877.84 408.869 1884.31 407.129C1889.62 405.7 1895.16 405.254 1900.38 403.379C1904.8 401.773 1908.63 399.229 1911.36 395.257C1912.03 394.319 1912.83 393.248 1912.16 392.088C1911.49 390.927 1910.15 391.017 1909.04 391.284C1904.08 392.355 1899.17 393.516 1894.22 394.587C1882.93 397.042 1871.59 399.452 1859.99 399.854L1858.25 400.166C1857.35 402.13 1856.06 403.424 1853.83 403.915C1819.15 411.681 1784.25 418.242 1749.21 423.91C1731.09 426.856 1713.37 431.676 1695.39 435.291C1666.11 441.138 1636.74 446.761 1607.37 452.162C1583.54 456.536 1559.79 461.267 1536.01 465.819C1534.18 466.176 1532.26 466.399 1530.43 466.622C1529 466.801 1527.21 467.203 1526.54 465.596C1525.92 464.078 1526.59 462.472 1527.84 461.311C1529.13 460.106 1530.43 458.901 1529.58 456.848L1529.53 456.803C1522.71 454.661 1517.22 458.276 1516.73 465.283C1516.28 471.398 1516.06 471.621 1509.81 471.8C1509.23 471.8 1508.6 471.666 1508.07 471.844C1499.41 474.477 1491.2 473.629 1482.89 469.791C1478.16 467.604 1472.85 469.97 1467.99 470.996C1459.51 472.781 1451.07 474.745 1442.46 475.861C1441.88 475.95 1441.25 475.906 1440.76 476.129C1439.07 476.754 1436.3 476.843 1436.61 479.075C1436.97 481.708 1439.69 481.261 1441.61 480.949C1444.15 480.547 1446.61 479.744 1449.2 479.298C1444.78 480.771 1440.49 482.333 1439.11 487.465C1439.87 487.599 1440.63 487.733 1441.43 487.867C1445.63 487.554 1449.6 486.662 1453.57 485.144C1461.52 482.109 1469.82 482.824 1477.94 484.787C1482.89 485.992 1483.34 487.822 1479.73 491.437C1477.23 493.892 1475.57 496.927 1473.34 499.56C1472.81 501.613 1472.32 503.666 1471.78 505.719C1473.39 507.951 1472.32 510.183 1471.74 512.37C1468.48 525.447 1463.84 538.077 1459.86 550.887C1457.99 556.956 1455.98 563.026 1454.46 569.186C1453.3 573.961 1450.49 575.925 1445.81 575.702C1444.82 578.38 1440.94 578.469 1440.49 581.638C1442.82 581.682 1445.09 581.682 1447.41 581.727C1448.39 581.727 1449.64 581.325 1450.05 582.53C1450.49 583.869 1449.29 584.539 1448.31 585.164C1447.68 585.565 1447.06 585.878 1446.34 586.101C1436.39 589.136 1426.35 591.68 1415.99 592.885C1415.46 592.974 1414.88 593.019 1414.34 593.108C1412.11 594.224 1409.65 594.224 1407.24 594.358C1406.66 594.492 1406.13 594.625 1405.55 594.759C1404.79 595.518 1403.9 595.741 1402.87 595.429C1401.71 595.786 1400.55 596.366 1399.26 596.054C1397.65 596.991 1395.95 597.303 1394.12 596.991C1393.27 597.08 1392.43 597.214 1391.53 597.303C1383.54 598.732 1375.51 600.249 1367.39 600.606C1365.29 600.695 1363.24 600.651 1361.23 600.472V615.602C1362.03 615.513 1362.84 615.424 1363.68 615.334C1365.07 614.71 1366.5 614.531 1367.97 614.665C1376.63 612.523 1385.37 608.55 1394.21 607.256C1394.79 607.122 1395.33 607.033 1395.91 606.899C1402.29 605.783 1408.72 604.266 1415.1 603.15C1415.68 603.105 1416.26 603.016 1416.8 602.972C1422.78 601.142 1429.02 601.543 1435.14 600.606C1435.67 600.517 1436.25 600.383 1436.79 600.294C1448.31 597.393 1459.91 596.902 1471.69 595.25L1472.05 595.027L1472.45 595.116C1481.11 592.796 1489.95 591.189 1498.83 589.761C1499.63 589.27 1500.48 589.18 1501.37 589.359C1508.69 586.636 1516.55 586.235 1524.09 584.583C1533.91 582.441 1543.91 580.924 1553.81 579.138C1554.13 579.138 1554.39 579.094 1554.71 579.094C1567.16 576.55 1579.61 573.916 1592.11 571.551C1607.77 568.605 1623.48 565.883 1639.15 563.116C1640 562.982 1640.85 562.982 1641.74 562.937L1642.01 562.892C1642.54 562.803 1643.03 562.669 1643.57 562.58C1644.15 562.491 1644.68 562.446 1645.26 562.357C1648.97 561.063 1652.81 560.482 1656.69 560.036C1657.85 559.5 1659.06 559.233 1660.35 559.411C1674.27 556.733 1688.15 554.055 1702.08 551.378C1702.66 551.288 1703.2 551.244 1703.78 551.154C1709.31 550.039 1714.84 548.967 1720.38 547.852C1720.96 547.807 1721.54 547.762 1722.12 547.718C1724.35 546.647 1726.72 546.423 1729.13 546.29C1729.71 546.2 1730.24 546.111 1730.82 545.977C1738.28 544.013 1745.82 542.228 1753.54 541.559C1754.52 540.845 1755.68 540.8 1756.84 540.845C1760.9 539.595 1765.05 538.97 1769.25 538.524C1769.79 538.39 1770.37 538.256 1770.9 538.077C1786.88 534.418 1802.19 526.875 1818.3 523.974C1818.52 523.483 1819.01 523.126 1819.73 523.037C1832.94 521.028 1846.11 520.716 1858.83 516.788C1864.4 515.048 1870.12 513.664 1875.79 512.28C1880.56 510.138 1885.52 508.308 1890.38 506.389C1891.18 505.809 1891.99 505.139 1892.83 504.648C1906.76 496.659 1916.22 485.234 1921.27 469.836C1931.75 437.969 1942.73 406.325 1953.49 374.548C1954.56 371.379 1955.27 368.165 1955.68 364.818C1957.06 351.607 1952.02 340.047 1946.12 328.756ZM1227.78 236.368C1227.91 235.386 1228.14 234.181 1229.66 234.985C1231.08 235.744 1232.87 244.447 1231.75 245.786C1230.99 246.723 1230.41 248.419 1228.81 247.883C1227.38 247.437 1227.38 245.875 1227.33 244.581C1227.29 244 1227.29 243.42 1227.2 242.483C1227.38 240.698 1227.51 238.511 1227.78 236.368ZM1225.06 255.694C1225.15 254.667 1225.68 253.685 1226.89 253.73C1228.41 253.819 1228.36 255.248 1228.76 256.14C1228.67 257.167 1228.41 258.059 1227.29 257.792C1226.22 257.524 1224.92 257.211 1225.06 255.694ZM1220.82 260.648C1221.09 260.246 1221.31 259.889 1221.58 259.488C1221.71 258.818 1221.71 257.658 1222.07 257.524C1223.18 257.167 1223.54 258.238 1223.5 259.041C1223.5 260.336 1222.69 261.674 1223.23 262.835C1222.02 261.184 1219.97 262.701 1218.27 262.389C1218.14 260.291 1219.75 260.871 1220.82 260.648ZM1217.87 275.733C1218.9 277.295 1219.26 278.545 1218.23 279.795C1218.1 279.929 1217.34 279.839 1217.16 279.616C1216.22 278.188 1216.94 277.117 1217.87 275.733ZM1205.24 288.677C1204.97 286.936 1203.14 285.285 1206.36 284.392C1208.01 283.946 1206.4 281.982 1207.74 280.42C1209.26 282.16 1210.95 283.499 1211.8 285.24C1212.92 287.561 1213.59 288.9 1216.49 287.07C1218.36 285.865 1218.41 288.453 1219.17 289.48C1220.01 290.64 1220.06 291.578 1218.54 292.202C1215.55 293.452 1212.7 297.915 1209.48 292.069C1208.81 290.953 1205.64 291.444 1205.24 288.677ZM1214.3 319.428C1214.21 320.097 1213.41 320.276 1212.92 319.919C1210.82 318.401 1210.24 316.393 1211.13 313.893C1211.4 314.027 1211.62 314.116 1211.8 314.25C1213.45 315.589 1214.61 317.196 1214.3 319.428ZM1234.16 348.304C1232.15 349.018 1231.8 347.545 1231.35 346.028C1229.25 338.485 1228.05 330.675 1224.48 323.578C1223.67 323.4 1222.83 323.266 1222.02 323.087C1220.95 323.935 1221.04 326.345 1219.26 325.899C1217.38 325.408 1218.19 323.177 1217.65 321.793C1216.67 319.249 1218.54 320.008 1219.88 319.785C1221.13 319.606 1220.86 318.312 1220.82 317.285C1220.77 313.849 1222.34 313.045 1225.64 314.697L1225.86 314.741V314.964C1226.67 315.545 1226.98 316.348 1226.71 317.33C1227.69 318.669 1227.16 320.186 1227.2 321.659C1228 329.916 1231.84 337.191 1234.92 344.689C1235.5 346.251 1236.08 347.59 1234.16 348.304ZM1355.52 496.927C1357.3 499.605 1359 502.06 1360.51 504.559C1361.05 505.407 1361.27 506.612 1360.16 507.192C1359.35 507.594 1358.46 506.969 1357.88 506.3C1355.69 503.622 1354.8 500.587 1355.52 496.927ZM1299.19 411.368C1297.23 406.727 1298.48 401.55 1296.92 396.863C1298.34 401.594 1301.51 406.013 1299.19 411.368ZM1286.43 444.753C1282.45 441.495 1282.45 436.808 1280.13 433.372C1282.86 436.585 1287.27 438.772 1286.43 444.753ZM1263.75 404.808C1264.11 404.004 1264.33 402.799 1265.27 402.933C1266.74 403.067 1266.7 404.54 1266.83 405.656C1267.46 411.726 1268.53 417.662 1270.49 423.464C1271.79 427.302 1275.45 430.114 1275.09 434.845C1269.42 435.514 1267.99 430.962 1267.15 427.614C1266.25 424.088 1264.87 420.786 1263.58 417.483C1261.92 413.154 1261.88 408.958 1263.75 404.808ZM1249.11 301.218C1246.26 295.505 1246.93 289.257 1246.08 283.098C1250.59 288.677 1249.92 294.925 1249.11 301.218ZM1243.27 265.736C1243.45 265.557 1244.21 265.513 1244.38 265.691C1245.95 267.298 1244.03 268.726 1244.12 270.288C1242.33 268.86 1242.02 267.343 1243.27 265.736ZM1585.73 508.888C1584.7 508.933 1583.54 508.353 1583.76 507.148C1584.16 505.139 1585.95 504.738 1587.64 504.604C1588.58 504.559 1589.21 505.229 1589.25 506.389C1588.36 507.505 1587.42 508.844 1585.73 508.888ZM1601.66 502.908C1600.23 502.997 1598.8 503.086 1597.46 503.756C1596.12 504.425 1594.92 504.202 1594.43 502.506C1593.98 500.989 1594.47 499.739 1595.95 499.426C1598.4 498.936 1600.28 497.373 1602.86 495.677C1603.13 498.132 1600.23 499.516 1602.73 501.346C1603.71 502.104 1602.55 502.863 1601.66 502.908ZM1797.1 495.008C1799.24 495.41 1797.68 497.463 1797.99 498.712C1797.19 497.641 1796.39 496.615 1795.58 495.544C1796.12 495.365 1796.65 494.919 1797.1 495.008ZM1737.65 509.602C1739.66 509.245 1741.4 508.665 1742.74 506.746C1744.08 504.827 1746.22 507.683 1747.92 506.434C1747.29 504.604 1746 504.202 1744.21 504.336C1742.65 504.47 1741.09 504.336 1739.53 504.113C1736 503.622 1734.97 501.881 1736.45 498.4C1738.81 492.821 1742.52 488.447 1747.2 484.787C1746.89 482.109 1750.37 481.842 1750.68 479.208C1750.86 477.914 1752.83 479.387 1753.36 479.967C1754.97 481.797 1753.32 485.725 1750.73 486.751C1749.92 489.027 1746.31 490.723 1747.6 492.866C1749.17 495.499 1751.4 491.482 1753.63 491.973C1756.13 492.553 1757.11 489.34 1758 489.295C1761.31 489.027 1764.92 488.224 1768.05 490.277C1768.8 490.768 1770.14 490.768 1770.1 492.152C1766.48 492.464 1764.79 494.517 1763.85 498.98C1763.63 500.141 1762.51 501.122 1761.84 502.149C1762.29 502.774 1763.49 503.309 1762.96 504.113C1761.93 505.675 1760.55 504.068 1759.3 504.157C1758.76 504.961 1758.18 505.764 1757.65 506.568C1757.6 507.148 1757.29 507.371 1756.75 507.103C1754.25 507.505 1751.67 506.701 1749.21 507.594C1748.99 508.264 1748.45 509.022 1748.63 509.558C1749.03 510.852 1752.02 510.808 1750.95 512.504C1749.88 514.244 1747.51 515.048 1745.42 515.449C1742.96 515.94 1740.37 514.601 1737.96 516.565C1737.07 517.279 1735.91 515.36 1734.84 514.69C1736.8 513.575 1734.57 510.183 1737.65 509.602ZM1768.09 503.533C1767.96 504.336 1767.33 504.782 1766.53 504.693C1765.77 504.604 1764.97 504.202 1765.28 503.354C1765.46 502.774 1766.26 502.461 1766.66 502.149C1767.87 502.149 1768.22 502.729 1768.09 503.533ZM1724.53 502.238C1725.42 502.328 1725.96 503.042 1725.91 503.934C1725.91 504.827 1725.47 505.675 1724.35 505.63C1723.19 505.541 1722.39 504.738 1722.43 503.666C1722.52 502.685 1723.41 502.283 1724.53 502.238ZM1709.71 504.113C1710.34 502.685 1710.83 502.506 1712.17 503.533C1715.02 505.764 1717.39 504.202 1719.49 502.06C1719.08 506.121 1716.85 508.13 1712.79 507.594C1710.56 507.282 1709.58 509.379 1706.99 509.826C1708.06 507.683 1708.95 505.943 1709.71 504.113ZM1693.42 483.672C1693.51 482.333 1693.91 480.994 1695.61 481.038C1696.9 481.038 1698.24 481.217 1698.73 482.913C1698.24 484.609 1696.72 485.234 1695.21 485.591C1694.09 485.769 1693.33 484.877 1693.42 483.672ZM1642.14 482.511C1635.13 486.974 1627.81 490.679 1620 493.312C1617.82 494.026 1616.34 496.793 1613.08 495.454C1628.53 484.832 1645 476.798 1662.18 469.657C1661.2 471.532 1660.66 472.603 1661.64 474.879C1662.54 477.021 1657.81 477.512 1656.73 477.289C1650.66 476.084 1646.47 479.789 1642.14 482.511ZM1645.31 488.67C1645.62 486.885 1647.54 487.242 1648.79 486.84C1649.59 486.573 1650.49 486.93 1650.62 488.09C1649.99 489.697 1648.57 489.92 1647.14 489.965C1646.29 490.009 1645.13 489.608 1645.31 488.67ZM1795.72 522.947C1769.43 528.124 1743.1 532.989 1716.85 538.3C1706.63 540.354 1696.5 542.853 1686.06 543.924C1684.36 544.46 1682.62 545.04 1680.79 544.861C1679.94 545.263 1679.14 545.709 1678.11 545.397C1677.26 545.531 1676.42 545.709 1675.57 545.843C1669.95 548.119 1663.92 548.119 1658.03 549.146C1655.66 549.548 1653.16 550.663 1649.5 549.726C1653.21 547.539 1656.6 547.852 1659.55 546.825C1663.65 545.397 1667.89 544.504 1672.09 543.344C1673.02 542.317 1675.26 541.871 1673.34 539.729C1670.88 537.051 1672.67 535.355 1675.12 534.641C1677.71 533.837 1679.9 532.766 1681.5 530.535C1682.8 528.794 1684.18 528.749 1685.03 530.847C1685.92 533.079 1688.91 535.444 1684.81 537.765C1683.87 538.301 1684.45 539.907 1685.16 540.934C1692.04 541.202 1698.69 539.639 1705.34 538.167C1719.35 535.087 1733.23 531.472 1747.38 528.839C1763.98 525.759 1780.54 522.367 1797.1 519.154C1799.6 518.663 1802.19 518.082 1805.09 519.689C1802.19 521.921 1798.84 522.322 1795.72 522.947Z" fill="#171A1F"/>
<path d="M1384.88 592.617C1382.56 594.224 1380.24 595.652 1377.74 592.93C1375.91 593.822 1374.08 592.885 1372.3 592.93C1369.93 592.974 1369.13 591.457 1369.26 589.671C1369.4 587.886 1368.77 585.565 1371.36 584.539C1372.57 584.048 1375.24 584.226 1374.4 582.218C1373.77 580.701 1371.45 579.986 1369.58 581.549C1370.2 582.218 1371.76 581.504 1371.81 583.021C1369.89 584.583 1365.07 582.709 1366.41 588.065C1366.76 589.448 1364.53 590.073 1362.97 589.895C1360.56 589.627 1358.1 589.136 1355.25 588.69C1357.48 590.921 1360.56 591.367 1362.34 594.045C1359.85 594.759 1357.75 594.313 1355.69 593.867C1334.49 589.18 1317.8 578.246 1307.72 558.429C1299.82 542.898 1292.01 527.321 1283.88 511.923C1257.37 461.49 1233.23 409.806 1206.8 359.328C1202.43 350.982 1198.73 342.279 1194.62 333.799C1187.26 318.624 1185.74 303.316 1190.02 286.847C1194.49 269.664 1200.47 253.016 1205.78 236.101C1209.35 224.72 1213.45 213.517 1216.62 202.002C1216.31 202.315 1215.86 202.493 1215.37 202.538C1215.28 202.895 1215.19 203.252 1215.06 203.609C1207.83 225.211 1200.65 246.812 1193.46 268.414L1185.51 288.81C1180.96 306.172 1184.09 322.641 1192.08 339.11C1203.23 362.095 1214.61 384.947 1225.86 407.843C1249.43 455.777 1273.84 503.265 1298.08 550.842C1304.81 564.053 1311.96 577.041 1324.72 585.744C1337.57 594.492 1351.1 601.142 1367.12 600.517C1375.24 600.204 1383.23 598.687 1391.27 597.214C1389.93 594.67 1385.82 595.831 1384.88 592.617ZM1374.75 596.857C1372.34 597.17 1369.93 599.223 1367.39 596.723C1368.1 595.563 1368.95 595.518 1369.58 595.697C1371.45 596.188 1373.37 593.867 1375.15 595.831C1375.29 595.92 1374.93 596.812 1374.75 596.857Z" fill="#171A1F"/>
<path d="M1377.74 592.929C1379.97 589.939 1382.38 590.162 1384.88 592.617C1382.56 594.179 1380.24 595.652 1377.74 592.929Z" fill="#171A1F"/>
<path d="M1307.14 315.455C1307.27 316.527 1307.67 317.464 1308.47 318.223C1309.1 320.811 1310.22 323.177 1311.82 325.274C1312.36 327.461 1313.38 329.425 1314.59 331.344C1314.63 332.639 1315.04 333.71 1316.02 334.558C1316.15 336.343 1317.04 337.771 1317.98 339.199C1318.2 339.69 1318.47 340.137 1318.7 340.628C1318.87 341.699 1318.96 342.77 1319.95 343.529C1320.21 344.332 1320.39 345.18 1320.75 345.983C1328.65 362.631 1336.77 379.189 1344.36 395.971C1347.26 402.442 1350.56 408.824 1352.04 415.876C1350.96 416.278 1350.38 415.341 1349.54 415.073C1347.26 411.859 1344.98 408.646 1342.71 405.432C1342.35 404.852 1342.04 404.317 1341.68 403.736C1337.62 395.881 1333.56 388.026 1329.54 380.171C1329.05 378.252 1328.29 376.467 1326.95 374.949C1325.12 370.084 1322.85 365.398 1320.08 360.98C1312.27 343.662 1304.01 326.613 1295.53 309.609C1286.83 292.158 1278.93 274.261 1271.16 256.408C1270.31 254.444 1268.71 251.588 1270.76 250.517C1272.99 249.356 1274.02 252.614 1275.05 254.31C1278.79 260.469 1282.37 266.762 1285.98 273.011C1286.03 274.171 1286.38 275.198 1287.5 275.778C1287.86 277.742 1288.93 279.393 1290.09 280.955C1290 281.714 1290.13 282.428 1290.98 282.696C1290.93 283.41 1291.11 284.079 1291.78 284.436C1291.78 285.151 1291.96 285.775 1292.63 286.177C1292.59 286.936 1292.68 287.605 1293.48 287.962C1294.68 290.997 1295.98 293.988 1297.9 296.621C1298.66 299.477 1300.04 301.977 1301.82 304.297C1301.96 304.61 1302.14 304.967 1302.27 305.279C1303.52 308.761 1305.04 312.242 1307.14 315.455Z" fill="#171A1F"/>
<path d="M1486.15 460.776C1477.27 462.338 1468.88 465.596 1460.22 467.872C1457.59 468.586 1455 469.702 1452.14 469.077C1452.55 468.318 1452.95 467.56 1453.39 466.801C1457.9 463.811 1462.81 461.847 1467.99 460.285C1479.64 456.803 1491.24 453.188 1502.84 449.662C1503.25 449.618 1503.6 449.618 1504.01 449.573C1505.48 449.439 1507 449.305 1508.2 448.279C1508.78 448.145 1509.32 448.011 1509.9 447.877C1523.33 444.931 1536.72 441.986 1550.15 439.04C1550.47 439.174 1550.73 439.085 1550.96 438.862C1556.36 438.728 1561.54 437.255 1566.8 436.318C1594.34 431.497 1621.65 425.383 1649.46 422.08C1650.8 422.348 1652.45 421.857 1653.03 423.731C1647.14 426.365 1640.62 426.588 1634.6 428.73C1633.75 428.909 1632.9 429.043 1632.1 429.221C1628.97 429.757 1625.85 430.158 1622.77 430.783C1607.55 433.863 1592.11 436.005 1577.07 440.111C1576.49 440.2 1575.95 440.29 1575.37 440.379C1575.1 440.379 1574.79 440.379 1574.52 440.379C1573.54 440.2 1572.65 440.379 1571.76 440.87C1571.22 440.959 1570.68 441.048 1570.15 441.138C1569.57 441.227 1568.99 441.361 1568.41 441.45C1565.46 441.539 1562.52 441.807 1559.79 443.146C1559.17 443.28 1558.5 443.369 1557.88 443.503C1549.08 444.753 1540.42 446.672 1531.9 449.127C1531.59 449.171 1531.28 449.261 1530.96 449.305C1528.55 449.573 1526.23 449.975 1524.04 451.135C1523.42 451.314 1522.8 451.448 1522.13 451.626C1521.81 451.671 1521.5 451.671 1521.14 451.715C1519.31 451.849 1517.53 452.117 1515.97 453.144C1506.42 454.572 1497.22 457.205 1488.07 460.24C1487.36 460.151 1486.73 460.285 1486.15 460.776Z" fill="#171A1F"/>
<path d="M1822.14 115.06C1832.27 127.2 1836.51 142.419 1843.34 156.21C1857.49 184.73 1870.43 213.83 1884.85 242.26C1886.36 245.25 1887.52 248.33 1888.24 251.543C1888.82 254.31 1887.3 253.596 1885.92 252.659C1884.22 248.464 1882.48 244.268 1879.85 240.519C1875.65 232.129 1871.37 223.827 1867.93 215.124C1867.57 214.231 1867.31 213.116 1865.97 213.16C1866.32 209.277 1863.91 206.332 1862.53 203.073C1855.75 187.095 1849.36 170.939 1841.42 155.496C1836.15 145.231 1830.53 135.1 1824.24 125.415C1823.21 123.495 1822.14 121.621 1821.16 119.702C1820.26 118.006 1819.15 116.801 1817.01 117.693C1815.62 116.578 1814.24 115.462 1812.86 114.346C1813.39 114.658 1813.88 114.569 1814.33 114.167C1816.74 115.506 1819.46 115.194 1822.14 115.06Z" fill="#171A1F"/>
<path d="M1256.57 228.112C1249.34 224.541 1247.69 217.668 1247.06 210.661C1245.77 196.423 1250.9 184.373 1260.54 174.107C1261.12 173.483 1262.01 170.805 1263.58 173.483C1263.4 174.063 1263.22 174.643 1263 175.179C1258.31 183.569 1256.48 192.763 1255.94 202.27C1255.81 202.85 1255.72 203.386 1255.59 203.966C1254.92 212.178 1256.48 219.855 1261.25 226.683C1260.76 230.566 1258.04 227.353 1256.57 228.112Z" fill="#171A1F"/>
<path d="M1431.35 474.299C1422.6 477.78 1415.14 482.779 1405.77 478.985C1402.42 477.646 1398.85 476.843 1395.42 475.727C1394.39 475.37 1392.78 475.147 1393.14 473.674C1393.45 472.291 1395.02 472.514 1396.13 472.692C1402.11 473.763 1408.14 474.21 1414.21 474.522C1418.05 474.745 1420.95 471.576 1424.92 472.38C1426.7 472.782 1428.62 472.424 1431.35 474.299Z" fill="#171A1F"/>
<path d="M1845.66 471.755C1844.72 470.238 1844.1 468.809 1844.81 466.89C1847.22 460.195 1849.5 453.501 1851.82 446.761C1852.44 444.976 1853.43 443.414 1855.52 443.95C1857.8 444.574 1856.82 446.538 1856.59 447.966C1856.37 449.662 1855.88 451.358 1855.52 453.054C1853.51 458.232 1851.46 463.409 1849.45 468.586C1848.78 470.461 1848.07 472.112 1845.66 471.755Z" fill="#171A1F"/>
<path d="M1414.16 569.007C1414.83 562.759 1416.71 556.957 1418.58 551.199C1419.43 548.611 1421.79 548.789 1423.62 549.146C1425.72 549.592 1425.32 551.512 1424.74 553.074C1422.82 558.653 1420.95 564.321 1418.8 569.81C1418.22 571.283 1417.38 573.56 1415.28 573.024C1413.14 572.488 1415.14 570.168 1414.16 569.007Z" fill="#171A1F"/>
<path d="M1926.98 329.737C1931.17 336.968 1933.67 344.644 1932.87 353.169C1932.69 355.222 1931.08 355.579 1929.43 355.847C1928.45 354.374 1929.17 352.812 1929.12 351.25C1929.08 348.884 1930.01 345.849 1925.51 346.296C1923.45 346.474 1923.5 344.466 1923.9 342.725C1925.01 338.396 1925.95 334.067 1926.98 329.737Z" fill="#171A1F"/>
<path d="M1465.04 513.887C1464.02 521.832 1460.58 529.062 1458.57 536.694C1457.54 540.577 1455.98 544.37 1454.64 548.164C1454.06 549.86 1453.3 550.217 1452.28 548.432C1455.36 538.39 1458.48 528.348 1461.56 518.306C1462.14 516.431 1462.72 514.467 1465.04 513.887Z" fill="#171A1F"/>
<path d="M1437.42 566.329C1439.42 560.527 1439.56 553.699 1442.95 547.763C1443.44 546.915 1443.98 545.62 1445.09 545.977C1446.56 546.424 1446.16 547.897 1445.9 548.968C1444.24 555.127 1443.13 561.42 1440.85 567.4C1440.45 568.472 1440 569.811 1438.53 569.454C1437.33 569.186 1437.55 567.891 1437.42 566.329Z" fill="#171A1F"/>
<path d="M1868.78 456.803C1866.46 465.551 1864.27 474.344 1858.92 483.359C1858.07 475.683 1861.77 470.282 1862.84 464.346L1862.89 464.212C1863.02 463.811 1863.16 463.409 1863.29 463.052L1863.47 462.918L1863.38 462.695C1864.05 462.115 1864.27 461.356 1864.18 460.508C1865.07 458.946 1865.74 457.16 1866.86 455.822C1868.42 453.992 1868.47 455.866 1868.78 456.803Z" fill="#171A1F"/>
<path d="M1434.47 551.556C1433.49 554.591 1433 557.894 1431.39 560.572C1428.35 565.526 1428.27 571.64 1424.83 576.371C1424.2 577.264 1423.49 578.871 1422.24 577.844C1420.9 576.728 1422.55 575.791 1423.18 575.077C1428.53 569.275 1427.82 561.241 1430.72 554.546C1431.26 553.386 1431.48 552.047 1432.01 550.887C1432.28 550.306 1432.91 549.637 1433.76 550.039C1434.38 550.306 1434.42 550.931 1434.47 551.556Z" fill="#171A1F"/>
<path d="M1380.06 467.917C1377.88 466.131 1375.6 464.391 1373.46 462.561C1372.3 461.579 1371 460.553 1371.36 458.678C1379.08 460.597 1384.84 465.774 1392.07 470.505C1386.58 472.201 1383.72 468.452 1380.06 467.917Z" fill="#171A1F"/>
<path d="M1396.4 430.694C1395.37 431.854 1394.75 433.372 1393.01 433.774C1390.55 434.354 1388.37 434.041 1386.89 431.854C1384.84 428.819 1387.07 426.811 1388.77 424.713C1392.56 423.91 1394.93 425.651 1396.44 428.953C1396.44 429.578 1396.4 430.114 1396.4 430.694Z" fill="#171A1F"/>
<path d="M1874.76 462.561C1875.34 462.204 1876.01 461.49 1876.46 461.624C1877.26 461.847 1877.12 462.873 1876.9 463.498C1875.21 468.229 1874.36 473.273 1871.81 477.691C1871.41 478.405 1870.61 478.941 1870.7 479.923C1870.74 480.726 1872.04 482.11 1870.07 482.065C1868.78 482.02 1869.67 480.28 1869 479.566C1869.63 478.851 1869.89 478.003 1869.76 477.066C1870.7 474.79 1871.77 472.514 1871.9 470.014C1872.84 469.077 1872.97 467.827 1873.15 466.622C1873.73 466.176 1873.91 465.551 1873.78 464.837L1873.91 464.525C1874.13 464.034 1874.31 463.543 1874.54 463.052C1874.76 462.963 1874.85 462.784 1874.76 462.561Z" fill="#171A1F"/>
<path d="M1907.12 289.257C1904.53 291.042 1901.4 291.354 1898.55 292.336C1895.92 293.229 1894.26 291.131 1893.91 289.034C1893.42 286.177 1895.96 287.204 1897.52 286.98C1899.71 286.713 1901.81 286.847 1903.86 287.561C1904.89 288.275 1906.98 286.891 1907.12 289.257Z" fill="#171A1F"/>
<path d="M1497.62 149.917C1498.25 148.935 1498.74 147.864 1499.5 147.061C1500.61 145.9 1501.95 144.918 1503.69 145.766C1505.08 146.436 1505.84 147.73 1505.97 149.203C1506.15 150.944 1505.48 152.283 1503.6 152.818C1502.76 153.041 1502 153.398 1501.15 153.666C1499.23 153.131 1498.02 151.926 1497.62 149.917Z" fill="#171A1F"/>
<path d="M1322.09 225.121C1321.33 226.996 1319.86 227.397 1318.2 227.353C1316.46 227.264 1315.48 226.192 1315.66 224.541C1315.79 223.024 1317.27 222.22 1318.52 222.577C1319.86 222.934 1321.51 223.425 1322.09 225.121Z" fill="#171A1F"/>
<path d="M1872.62 421.5C1874 425.606 1872.3 428.061 1867.71 428.552C1867.35 427.525 1866.95 426.499 1866.59 425.472C1867.17 424.624 1867.71 423.732 1868.29 422.884C1869.72 422.437 1871.19 421.991 1872.62 421.5Z" fill="#171A1F"/>
<path d="M1840.71 493.357C1840.08 490.188 1841.46 487.465 1842.67 484.698C1843.03 483.939 1843.56 483.091 1844.59 483.493C1845.57 483.895 1845.62 484.877 1845.39 485.68C1844.54 488.403 1844.1 491.304 1842.22 493.58C1841.69 493.535 1841.2 493.446 1840.71 493.357Z" fill="#171A1F"/>
<path d="M1640.22 112.918C1640.98 110.597 1642.9 109.972 1644.33 108.812C1645.22 108.053 1646.29 107.964 1646.96 108.945C1647.85 110.284 1646.87 110.954 1645.8 111.579C1644.15 112.65 1642.5 113.275 1640.22 112.918Z" fill="#171A1F"/>
<path d="M1410.64 447.074C1409.39 446.851 1407.96 446.627 1408.14 444.842C1408.27 443.637 1409.03 442.566 1410.41 442.7C1412.02 442.834 1413.27 443.726 1413.27 445.422C1413.31 446.94 1411.98 447.074 1410.64 447.074Z" fill="#171A1F"/>
<path d="M1451.74 522.858C1451.92 520.894 1449.82 518.395 1453.08 517.368C1453.93 517.101 1455.13 516.922 1455.31 517.949C1455.76 520.493 1453.48 521.475 1451.74 522.858Z" fill="#171A1F"/>
<path d="M1813.84 99.4389C1813.26 101.581 1810 100.153 1809.64 102.608C1808.79 102.251 1807.5 102.429 1807.37 101.135C1807.23 99.8852 1808.26 99.4835 1809.24 99.2603C1810.76 98.8587 1812.36 97.5197 1813.84 99.4389Z" fill="#171A1F"/>
<path d="M1378.41 372.584C1378.19 373.833 1377.7 374.86 1376.27 374.86C1374.71 374.86 1374.53 373.521 1374.53 372.405C1374.53 371.022 1375.42 370.308 1376.81 370.397C1378.06 370.486 1378.37 371.468 1378.41 372.584Z" fill="#171A1F"/>
<path d="M1828.83 376.957C1828.61 378.296 1827.76 378.698 1826.6 378.475C1825.44 378.252 1824.15 377.805 1824.24 376.377C1824.28 375.217 1825.26 374.637 1826.42 374.949C1827.49 375.261 1828.74 375.485 1828.83 376.957Z" fill="#171A1F"/>
<path d="M1430.18 468.497C1428.85 468.274 1428.04 467.783 1427.91 466.622C1427.77 465.64 1428.44 465.417 1429.25 465.551C1430.32 465.774 1431.66 465.953 1431.61 467.426C1431.61 467.872 1430.59 468.229 1430.18 468.497Z" fill="#171A1F"/>
<path d="M1923.01 395.391C1921.27 395.301 1919.79 396.953 1917.92 396.239C1919.12 395.257 1920.24 394.141 1921.53 393.293C1922.16 392.891 1923.18 392.266 1923.81 393.159C1924.43 394.096 1923.36 394.676 1923.01 395.391Z" fill="#171A1F"/>
<path d="M1309.99 171.653C1308.16 170.358 1306.65 169.734 1307.09 167.948C1307.27 167.145 1308.12 166.922 1308.88 167.279C1310.62 168.127 1310.04 169.6 1309.99 171.653Z" fill="#171A1F"/>
<path d="M1866.73 380.662C1867.75 380.885 1868.33 381.242 1868.2 382.09C1868.02 383.072 1867.4 383.519 1866.41 383.385C1865.66 383.295 1865.07 382.849 1865.21 382.001C1865.34 381.153 1866.06 380.751 1866.73 380.662Z" fill="#171A1F"/>
<path d="M1282.46 162.95C1283.12 161.075 1284.55 161.164 1286.07 161.521C1286.2 162.28 1286.78 163.173 1285.8 163.753C1284.42 164.556 1283.44 163.798 1282.46 162.95Z" fill="#171A1F"/>
<path d="M1400.19 587.797C1400.28 586.86 1400.77 586.235 1401.75 586.19C1402.78 586.146 1403.32 586.994 1403.36 587.797C1403.41 589.002 1402.25 588.734 1401.53 588.913C1400.68 589.136 1400.24 588.645 1400.19 587.797Z" fill="#171A1F"/>
<path d="M1882.79 451.135C1883.51 451.403 1884.09 451.804 1883.73 452.652C1883.42 453.456 1882.93 454.259 1881.99 454.215C1881.05 454.215 1880.96 453.456 1881.14 452.697C1881.36 451.849 1881.72 451.135 1882.79 451.135Z" fill="#171A1F"/>
<path d="M1221.58 259.488C1221.76 259.8 1222.16 260.202 1222.07 260.425C1221.84 261.094 1221.31 260.96 1220.82 260.648C1221.04 260.246 1221.31 259.889 1221.58 259.488Z" fill="#171A1F"/>
<path d="M1675.35 418.822C1675.88 420.562 1677.98 422.571 1674.99 423.821C1673.29 424.535 1671.28 425.74 1669.36 423.954C1668.65 423.285 1668.38 422.303 1668.92 421.634C1670.53 419.581 1672.31 417.661 1675.35 418.822Z" fill="#171A1F"/>
<path d="M1215.11 203.609L1219.88 189.55C1221.31 185.355 1223.36 181.338 1225.95 177.723C1227.83 175.089 1229.97 172.679 1232.33 170.537L1235.64 167.547C1237.56 165.806 1239.61 164.199 1241.75 162.816L1244.74 160.896C1247.95 158.843 1251.39 157.192 1254.96 155.987L1257.28 155.184C1258.09 154.916 1258.89 154.648 1259.74 154.425L1266.3 152.64L1246.08 175.179L1215.11 203.609Z" fill="#171A1F"/>
<path d="M1337.35 611.898C1340.52 612.835 1343.38 614.442 1354.27 615.602C1358.73 616.093 1364.58 615.736 1366.36 615.424L1438.49 601.9L1521.1 585.699L1673.74 557.403L1770.59 538.211L1857.75 519.064C1871.14 516.119 1883.82 510.718 1895.25 503.175L1902.74 497.686L1908.32 492.241L1903.41 490.857L1890.25 502.908L1875.79 508.442L1519 581.638L1367.88 612.166L1350.7 612.344L1340.48 611.407L1337.35 611.898Z" fill="#171A1F"/>
<path d="M1389.7 129.922L1745.82 62.2162C1745.82 62.2162 1769.16 57.5746 1791.61 66.9472L1788.35 71.1425L1767.29 64.9388L1737.43 69.0449L1724.93 76.3198L1698.51 82.4789L1627.9 96.404L1524.89 113.052L1370.78 142.553L1389.7 129.922Z" fill="#171A1F"/>
<path d="M1825.58 91.5392C1825.58 91.5392 1829.73 95.6453 1842.54 120.371L1891.54 217.802L1949.52 335.54L1927.02 300.37L1869.81 191.469L1837.31 119.746L1825.58 91.5392Z" fill="#171A1F"/>
<path d="M1217.22 197.97L1190.1 281.701L1193.05 282.881L1224.1 212.908L1217.22 197.97Z" fill="#171A1F" stroke="#171A1F" stroke-width="0.446315"/>
<path d="M1105.28 35.473C1213.93 32.1707 1289.7 99.8246 1315.42 186.099L1316.02 188.14L1316.02 188.149C1335.47 256.08 1355.25 323.999 1374.48 391.926L1378.32 405.512L1378.32 405.519C1389.94 446.957 1405.23 489.125 1408.73 533.918L1408.73 533.925C1411.7 572.413 1390.44 607.046 1355.05 622.2L1355.05 622.199C1326.68 634.439 1296.72 636.331 1267.6 636.527C1220.28 637.196 1172.89 637.174 1125.56 637.318L1125.28 637.318L1125 637.293C1122.78 637.091 1120.82 636.914 1118.88 636.885L1117.16 636.859L1115.72 635.928C1114.54 635.167 1113.22 634.976 1110.97 635.817L1108.49 636.741L1106.13 635.533C1104.7 634.797 1103.29 634.104 1101.83 633.386C1100.38 632.674 1098.88 631.937 1097.34 631.147L1095.15 630.025L1094.38 627.69C1091.45 618.84 1087.91 609.291 1085.05 599.922L1085.05 599.911C1079.59 581.854 1075.38 563.402 1070.93 545.435C1066.45 527.365 1061.7 509.648 1055.1 492.521L1055.02 492.319L1054.96 492.112C1054.51 490.64 1054.15 489.47 1053.67 488.309L1053.42 487.7L1053.31 487.051C1047.86 455.676 1036.68 426.733 1027.73 395.245L1027.72 395.236L1027.72 395.228C995.739 281.483 963.373 168.026 931.191 54.3967L930.822 53.0939L931.048 51.7585C931.435 49.4756 931.862 46.9462 932.479 44.414L932.701 43.5056L933.188 42.7076C933.365 42.4182 933.559 42.078 933.813 41.6319C934.045 41.2236 934.336 40.7095 934.63 40.2273L936.165 37.716L936.878 37.6369L937.5 35.692L941.687 35.5173C949.236 35.2023 958.206 34.3699 966.314 34.3645L966.341 34.3651L966.366 34.3645C1013.14 34.7453 1059 36.9689 1105.27 35.4741L1105.28 35.473ZM1157.29 152.412C1129.48 140.585 1100.14 137.516 1068.81 136.925C1070.31 142.288 1071.69 147.222 1073.2 152.125L1073.65 153.559L1073.65 153.571L1073.66 153.585C1111.99 277.351 1147.44 401.974 1181.64 526.865L1181.75 527.244C1182.03 528.182 1182.28 528.757 1182.46 529.091C1182.78 529.054 1183.27 528.98 1184.16 528.846C1185.23 528.685 1187.09 528.411 1189.13 528.708C1191.38 528.744 1193.7 528.97 1195.97 529.354L1196.73 529.482L1197.43 529.796C1202.44 532.049 1207.71 532.716 1213.47 532.652C1219.58 532.585 1225.03 531.784 1231.88 531.346L1231.89 531.345L1231.9 531.345C1244.38 530.584 1253.74 529.46 1260.69 527.575C1267.6 525.7 1271.48 523.243 1273.77 520.289C1276.06 517.343 1277.45 513.026 1277.51 505.973C1277.57 498.871 1276.28 489.676 1273.84 477.582L1273.81 477.45L1273.79 477.317C1273.75 477.046 1273.68 476.731 1273.55 476.159C1273.45 475.741 1273.31 475.138 1273.2 474.489C1248.54 378.389 1219.25 283.52 1190.07 188.509L1190.06 188.497C1184.9 171.56 1173.82 159.411 1157.3 152.417L1157.29 152.412Z" fill="white" stroke="black" stroke-width="12"/>
<path d="M221.9 32.7985C321.32 38.4807 399.612 98.3104 425.687 194.503L425.69 194.514C427.641 201.764 427.763 208.623 424.061 214.053C420.398 219.423 414.16 221.657 407.756 222.621L407.749 222.621C398.401 224.015 388.378 224.047 379.878 224.665L378.608 224.758L377.411 224.326C370.691 221.907 366.615 220.461 362.038 221.855L360.232 222.406L358.437 221.823C353.558 220.239 349.459 219.822 345.549 221.068L344.161 221.51L342.724 221.267C340.982 220.971 339.26 220.635 337.642 220.318C335.999 219.996 334.468 219.697 332.984 219.445L332.196 219.311L331.47 218.976C327.034 216.927 321.766 214.612 317.384 211.017C312.724 207.193 309.129 202.028 307.405 194.49L307.403 194.477C301.738 169.438 291.015 152.372 276.138 142.349C261.248 132.317 241.252 128.699 215.752 132.495L215.753 132.496C207.976 133.677 203.323 136.057 200.655 139.204C198.057 142.269 196.461 147.112 197.144 155.256L197.324 157.247C201.318 198.905 219.432 232.069 256.218 254.109C256.824 254.462 257.431 254.815 258.037 255.167L259.898 256.249L260.074 256.352L260.243 256.465C261.625 257.4 263.109 258.343 264.495 259.153L265.083 259.492L265.3 259.615L265.508 259.757C267.167 260.893 268.935 262.041 270.611 263.057L271.323 263.485L271.355 263.503L271.386 263.522C295.031 277.934 318.39 292.396 341.965 306.644L346.684 309.49L346.688 309.493C423.692 355.954 486.877 414.729 509.369 507.911L509.893 510.119L509.894 510.121C521.728 560.975 509.464 607.309 467.881 634.814L467.879 634.815C439.749 653.406 407.389 657.937 374.942 655.924L374.941 655.923C319.713 652.529 270.73 637.094 232.414 608.069C194.02 578.984 166.756 536.564 154.556 480.039C153.28 474.13 152.534 468.903 152.681 464.413C152.83 459.869 153.913 455.554 156.804 452.06C159.692 448.571 163.722 446.701 168.129 445.692C172.486 444.693 177.724 444.418 183.702 444.512L183.709 444.513C207.482 444.915 231.198 447.897 254.279 450.289L254.29 450.29L254.302 450.291C261.83 451.1 268.456 453.231 273.484 457.756C278.58 462.342 281.258 468.68 282.293 476.298L282.497 477.66C284.727 491.663 290.593 503.883 295.75 518.698C300.512 532.041 310.814 541.323 323.018 546.776C335.301 552.264 349.057 553.65 359.846 551.525C367.341 549.998 374.479 547.758 379.799 544.258C384.919 540.89 388.118 536.551 388.663 530.389C391.623 496.81 379.596 468.153 352.508 446.667L355.331 443.106L354.591 442.569L350.553 444.293C349.486 441.793 347.707 439.915 345.179 438.122C342.308 436.088 339.683 434.889 335.886 432.616C295.676 408.849 254.35 385.725 214.204 361.197L214.204 361.196C168.844 333.573 132.432 300.379 108.018 259.973C83.5672 219.505 71.3471 172.126 73.9102 116.524L73.9372 115.926L74.0821 115.347C74.6037 113.258 75.1863 110.912 75.9659 108.564L76.393 107.278L77.3324 106.3C79.1165 104.442 79.67 102.23 79.2179 98.4846L78.991 96.6098L79.8796 94.9438C81.3782 92.1321 82.8767 89.32 84.3754 86.5083C85.874 83.6965 87.3734 80.8846 88.872 78.0728L89.8297 76.274L91.6861 75.4318C96.777 73.1199 100.105 69.0347 102.883 63.4205L103.981 61.2008L106.324 60.4015C109.345 59.3721 111.455 57.6449 112.905 54.9987L114.872 51.4078L118.932 51.9298C119.589 52.0143 119.927 51.9604 120.062 51.9262C120.064 51.9238 120.067 51.922 120.068 51.9193C120.137 51.8117 120.285 51.5336 120.422 50.9839L124.519 52.0062L122.577 47.6815L122.771 47.544L135.993 38.1621L135.066 41.8708C136.601 40.8888 138.68 39.7462 140.917 39.3881C142.556 39.1257 144.601 39.2221 146.594 40.3327C148.545 41.4205 149.758 43.0993 150.503 44.7029C151.654 47.1806 152.107 50.394 152.202 54.0876C153.223 53.7518 154.598 53.3002 155.871 53.0168L155.931 53.0032C168.167 50.4108 180.137 50.9267 191.76 52.5888C190.79 50.7694 189.916 48.7733 189.417 46.729C188.829 44.3165 188.599 41.1518 190.142 38.1196L190.177 38.0542C191.929 34.7144 194.678 32.7158 197.757 31.769C200.573 30.9028 203.49 30.9645 205.873 31.1887C208.251 31.4125 210.842 31.8905 212.855 32.2148C215.062 32.5705 216.785 32.7835 218.199 32.7535L218.272 32.7519L218.344 32.7522C218.899 32.7538 219.49 32.7629 220.034 32.7713C220.594 32.7798 221.108 32.7874 221.574 32.7887L221.737 32.7887L221.9 32.7985ZM412.991 537.718C412.503 537.727 411.863 537.828 411.237 538.065C410.547 538.327 410.081 538.672 409.803 539.01C409.573 539.287 409.297 539.756 409.246 540.7L409.246 540.7C408.883 548.25 406.21 554.286 400.985 558.269C398.429 560.216 395.498 561.485 392.388 562.278C393.311 562.819 394.58 563.23 396.453 563.547C397.649 563.75 398.895 563.887 400.373 564.056C401.78 564.217 403.401 564.407 405.012 564.711C407.576 565.196 410.549 566.044 413.284 567.918C413.298 567.913 413.313 567.91 413.327 567.905C413.683 567.776 414.033 567.619 414.346 567.445C414.42 567.404 414.489 567.363 414.554 567.323C413.019 563.155 412.365 559.257 412.78 555.638C413.245 551.583 415.004 548.316 417.519 545.807C418.631 544.698 419.882 543.752 421.208 542.939C418.434 541.888 415.711 540.064 412.991 537.718ZM412.145 536.971L412.141 536.967L412.127 536.956C412.133 536.961 412.139 536.966 412.145 536.971ZM440.527 533.489C439.854 534.605 439.107 535.787 438.275 536.927C439.566 536.402 440.315 535.934 440.72 535.59C441.092 535.275 440.972 535.333 440.968 535.243C440.953 534.884 440.835 534.334 440.527 533.489Z" fill="white" stroke="black" stroke-width="12"/>
<path d="M1598.7 41.7251C1604.69 42.0194 1610.96 42.9991 1616.31 46.0937C1621.93 49.3469 1625.94 54.5878 1627.91 62.1292L1627.91 62.1293C1631.67 76.4027 1635.67 90.787 1639.21 105.33L1639.91 108.24L1639.91 108.263L1639.92 108.287C1641.73 116.149 1642.45 124.031 1638.01 129.833C1633.58 135.615 1625.74 137.082 1617.34 137.445L1617.32 137.446L1617.29 137.447C1570.85 139.044 1523.31 142.542 1475.92 137.438C1472.66 137.096 1470.48 136.99 1469.01 137.106C1468.96 137.109 1468.92 137.114 1468.88 137.118C1468.97 138.221 1469.28 139.848 1469.95 142.22L1470.29 143.387L1470.29 143.403L1470.3 143.419C1476.06 163.105 1483.35 182.254 1490.32 202.005C1497.03 221.016 1503.37 240.426 1507.36 260.605L1507.74 262.559L1507.74 262.567L1507.74 262.574C1509.36 271.276 1512.04 275.704 1515.1 277.935C1518.11 280.126 1522.81 281.164 1530.86 279.867L1533.61 279.424L1533.94 279.704C1534.17 279.735 1534.43 279.782 1534.7 279.853L1537.14 280.266C1544.67 281.006 1550.79 282.086 1557.6 282.264C1584.03 282.693 1611.08 282.47 1637.87 283.429C1649.1 283.816 1657.85 284.972 1664.19 290.353C1670.06 295.33 1672.84 303.091 1675.37 312.939L1675.87 314.936L1675.88 314.96L1675.88 314.984C1677.05 319.868 1678.08 324.761 1679.09 329.562C1679.98 333.785 1680.86 337.937 1681.82 342.059L1682.23 343.824L1682.24 343.836L1682.24 343.848C1683.84 350.656 1684.92 356.513 1685.07 361.439C1685.23 366.394 1684.46 371.124 1681.65 375.065C1678.81 379.025 1674.59 381.239 1669.86 382.617C1665.19 383.981 1659.36 384.713 1652.52 385.231L1652.5 385.231L1652.49 385.232C1645.24 385.75 1638.07 385.926 1630.82 385.906L1630.8 385.905L1630.79 385.905C1603.58 385.719 1576.18 385.504 1548.98 384.986L1548.98 384.987C1546.95 384.962 1545.5 384.988 1544.43 385.112C1544.56 385.895 1544.84 387.063 1545.42 388.73L1545.42 388.743C1560.04 431.208 1573.85 474.171 1584.21 518.187L1585.2 522.45L1585.21 522.466L1585.21 522.483C1585.95 525.777 1586.95 527.491 1587.98 528.444C1588.86 529.254 1590.35 530.064 1593.34 530.258L1593.96 530.289C1639.85 531.746 1685.07 533.838 1730.41 530.217L1731.16 530.158L1739.61 531.592L1740.24 531.96L1742.89 530.077L1746.16 531.821L1746.78 532.153C1748.74 532.919 1750.76 533.562 1753.13 534.375C1755.51 535.187 1758.14 536.138 1760.66 537.409C1765.89 540.041 1770.89 544.172 1773.33 551.59L1773.33 551.59C1779.02 568.51 1784.84 586.046 1788.05 604.191L1788.35 605.949L1788.35 605.956L1788.35 605.964C1789.48 612.842 1788.59 619.25 1784.51 624.117C1780.52 628.887 1774.47 630.941 1768.05 631.507L1768.05 631.506C1761.94 632.062 1755.6 632.213 1749.59 632.224C1736.12 632.601 1722.67 632.342 1709.43 632.168C1696.09 631.993 1682.91 631.904 1669.72 632.601L1669.72 632.599C1618.66 635.319 1567.18 639.085 1515.68 639.247L1515.68 639.248C1506.3 639.28 1498.19 637.78 1491.82 632.936C1485.4 628.057 1481.79 620.589 1479.57 611.09L1479.57 611.081C1453.42 498.492 1420.69 387.69 1389.11 276.305L1389.11 276.304C1379.62 242.967 1369.76 209.777 1359.9 176.547C1350.03 143.327 1340.16 110.067 1330.64 76.6518L1330.64 76.6392C1328.84 70.2535 1327.81 64.5284 1327.92 59.5492C1328.03 54.5003 1329.33 49.798 1332.57 46.0775C1335.8 42.3845 1340.28 40.424 1345.24 39.491C1350.16 38.5648 1356 38.5585 1362.62 39.1505L1362.63 39.1506C1396.79 42.248 1431.15 41.1724 1465.8 40.7141C1510.06 40.0363 1554.35 39.8533 1598.66 41.723L1598.68 41.7245L1598.7 41.7251ZM1717.82 599.158C1716.44 599.462 1715.53 599.866 1715 600.262C1714.67 600.504 1714.49 600.729 1714.37 600.966C1714.25 601.215 1714.08 601.701 1714.06 602.596C1714.05 604.223 1713.72 605.973 1713.56 606.975C1713.45 607.643 1713.38 608.148 1713.34 608.544C1714.46 608.694 1715.47 608.824 1716.46 608.876C1717.57 608.935 1718.34 608.874 1718.82 608.758C1718.9 608.739 1718.96 608.718 1719.01 608.702C1719.05 608.568 1719.1 608.337 1719.13 607.973L1719.13 607.973C1719.34 605.295 1719.34 603.105 1718.89 601.355C1718.66 600.467 1718.33 599.752 1717.82 599.158ZM1701.09 585.142C1700.38 585.555 1699.42 586.339 1698.29 587.796C1696.39 590.249 1694.91 593.502 1694.26 596.169L1694.26 596.185L1694.25 596.201C1693.84 597.838 1693.45 600.825 1693.66 603.201C1693.67 603.354 1693.68 603.499 1693.7 603.634C1696.88 602.981 1699.58 600.017 1699.47 594.871L1699.44 593.867L1699.75 592.91C1700.66 590.069 1701.17 587.16 1701.09 585.142Z" fill="white" stroke="black" stroke-width="12"/>
<path d="M836.507 35.1657C841.536 36.0241 845.943 37.5139 849.628 40.5616C853.292 43.5922 855.629 47.6569 857.523 52.445C859.394 57.1746 861.052 63.2031 863.007 70.5767L863.006 70.5765C871.041 100.778 879.42 130.566 889.681 159.802L890.142 160.083L890.582 162.365L890.678 162.637L890.648 162.711C891.074 164.923 891.404 167.38 891.704 169.237C891.99 171.009 892.294 172.576 892.72 174.035L892.91 174.654L892.935 174.73L892.958 174.806C904.361 213.527 915.807 252.256 927.253 290.988C938.698 329.719 950.144 368.452 961.549 407.179L964.262 416.395C977.791 462.483 990.901 508.829 1004.29 554.941C1004.93 557.055 1005.61 559.219 1006.3 561.411C1006.99 563.611 1007.69 565.838 1008.35 568.02L1008.91 569.847L1008.71 570.429L1009.9 571.296L1010.44 573.353C1012.21 580.048 1013.96 586.783 1015.72 593.509C1017.47 600.237 1019.23 606.957 1020.99 613.635L1021.23 614.561L1021.17 615.518C1020.79 622.079 1018.57 627.581 1014.01 631.379C1009.64 635.026 1003.97 636.361 998.192 636.624C976.555 637.63 954.889 635.887 934.065 635.041L934.037 635.04C926.923 634.718 921.093 632.848 916.287 629.085C911.598 625.413 908.432 620.357 905.827 614.708L905.801 614.652C899.825 601.333 895.985 587.541 892.628 573.993C889.233 560.293 886.379 547.073 882.306 534.084L882.305 534.078C847.502 422.673 815.927 310.258 783.488 198.368C782.919 196.419 782.574 194.372 782.29 192.767C782.135 191.886 781.992 191.102 781.84 190.383L781.596 190.94L762.668 164.284L773.631 169.148C773.332 168.207 773.019 167.13 772.787 166.001L772.786 166.002C765.527 132.225 753.87 100.107 743.549 66.4892L743.548 66.49C740.756 57.4556 739.7 48.7159 744.341 42.1651C748.976 35.6222 757.563 33.713 766.963 33.319L766.988 33.3173L767.014 33.3167C784.002 32.7495 801.138 33.078 817.959 33.7069L817.972 33.7071C825.435 34.0016 831.564 34.3217 836.507 35.1657ZM969.107 548.322C968.984 548.299 968.659 548.264 968.048 548.4C967.401 548.557 967.11 548.74 967.019 548.806C966.977 549.033 966.896 550.03 967.818 552.017L968.035 552.467L968.036 552.469C969.795 555.969 971.401 559.662 972.556 563.637C972.796 560.371 972.43 556.826 971.47 552.802C970.696 549.857 969.795 548.787 969.423 548.483C969.285 548.37 969.201 548.341 969.107 548.322Z" fill="white" stroke="black" stroke-width="12"/>
<path d="M510.651 43.2197C517.507 44.0963 523.715 46.2821 528.764 50.3001C533.849 54.347 537.337 59.9197 539.27 66.8268L540.253 70.2254C544.798 86.0431 548.766 101.292 553.377 116.917L554.375 120.271L554.381 120.293L554.388 120.315C571.69 179.602 589.693 239.024 606.419 298.633L608.033 304.403L608.037 304.414C625.378 367.01 641.487 429.951 658.08 492.659L658.079 492.659C658.548 494.415 658.907 496.168 659.226 497.737C659.558 499.365 659.848 500.797 660.207 502.189C660.868 504.752 661.676 506.802 662.968 508.56L663.233 508.908L664.241 510.186L664.465 511.798C665.298 517.778 665.976 521.873 666.833 524.834C667.673 527.731 668.494 528.836 669.154 529.405C669.833 529.991 671.092 530.658 674.148 531.13C677.249 531.609 681.407 531.784 687.408 531.941C735.152 532.998 784.7 530.011 833.388 533.826C839.455 534.28 844.857 535.764 849.417 538.959C853.993 542.166 857.161 546.704 859.453 552.276C866.486 568.934 873.523 586.26 876.02 605.28L876.021 605.287L876.165 606.418C876.859 612.033 877.18 616.994 876.809 621.265C876.408 625.879 875.16 630.171 872.257 633.681C869.347 637.199 865.352 639.232 860.831 640.461C856.375 641.673 850.976 642.221 844.71 642.465L844.706 642.465C818.359 643.473 791.898 642.794 765.909 642.94L765.895 642.941L765.881 642.941C712.826 642.986 660.037 642.535 607.147 643.436L607.146 643.435C596.943 643.643 588.587 641.604 582.238 636.084C576.001 630.66 572.669 622.698 570.585 613.275L570.581 613.262L570.579 613.248C535.954 453.267 490.298 296.191 446.536 138.099L446.533 138.091C439.866 113.878 433.481 89.5784 426.496 65.6228L426.496 65.6217C424.687 59.4139 423.883 52.6097 427.219 47.2151C430.809 41.4101 437.524 39.6908 444.593 39.7564C466.399 39.8728 488.6 40.3472 510.651 43.2187L510.651 43.2197Z" fill="white" stroke="black" stroke-width="12"/>
</g>
<defs>
<clipPath id="clip0_105_244">
<rect width="2007" height="681" fill="white" transform="translate(0.000976562 0.000183105)"/>
</clipPath>
</defs>
</svg>
