<svg width="902" height="671" viewBox="0 0 902 671" fill="none" xmlns="http://www.w3.org/2000/svg">
<path d="M95 258.5L152 161.5L657.5 66.5L691 76L719 98.5L840.5 341L845 366L807.5 481.5L769.5 513L248 613.5L217 587.5L95 331.5V258.5Z" fill="#FF55A4"/>
<path d="M85.7715 276.928C84.3879 280.588 82.8258 284.159 82.201 287.997C82.0224 288.934 81.4422 289.425 80.7727 289.559C80.3711 290.853 79.9694 292.103 79.6123 293.353C72.025 319.016 74.7029 346.643 86.8873 370.476L189.227 570.157C218.372 628.535 265.681 614.744 265.681 614.744L85.7715 276.928Z" fill="#171A1F"/>
<path d="M841.338 329.504C834.822 317.007 828.305 304.555 821.834 292.058C818.219 286.702 815.452 280.9 812.238 275.277C808.712 269.073 805.365 262.691 801.616 256.665C797.867 250.64 794.743 244.347 791.931 237.875C790.413 234.439 789.03 230.913 787.334 227.521C785.95 224.709 784.254 222.076 783.585 218.952C783.495 218.595 783.495 218.238 783.585 217.925C783.406 217.791 783.272 217.657 783.138 217.479C780.907 214.444 779.612 210.918 777.693 207.749C775.685 204.491 773.498 201.411 771.668 198.064C768.321 191.95 766 185.344 762.206 179.497C758.368 173.651 755.511 167.581 753.235 160.931C748.683 147.675 742.524 135 734.445 123.53C733.642 122.369 734.133 121.253 735.07 120.673C733.24 117.772 731.41 114.871 729.58 111.97C728.643 110.497 729.268 110.095 730.562 109.738C727.26 104.159 724.671 97.4201 720.788 92.1982C711.103 81.7991 700.258 72.9174 686.868 67.6063C684.547 66.8029 682.226 66.0442 679.906 65.2408C679.549 65.5086 679.147 65.6425 678.656 65.6425C673.702 65.5532 668.882 63.9465 664.061 63.0092C663.883 62.9646 663.704 62.92 663.571 62.8307C661.473 62.9646 659.331 63.1877 657.233 63.3216C647.146 63.9018 637.818 67.4724 628.088 69.8825C627.464 70.061 626.883 69.9271 626.437 69.6593C626.482 70.3288 626.125 71.0429 625.277 71.4446C617.912 74.9705 609.388 75.4614 601.354 76.0416C592.83 76.6664 584.528 78.9873 576.003 79.389C574.843 79.4336 574.174 78.7641 573.95 77.8715C570.425 78.6749 566.943 79.4336 563.417 80.4155C557.972 81.933 552.572 83.3612 546.948 83.9414C546.77 83.9414 546.636 83.9414 546.502 83.9414C546.324 84.6109 545.833 85.1464 544.985 85.3696C532.443 88.7616 519.768 92.2428 506.691 92.3321C505.843 92.3321 505.218 91.9304 504.906 91.3948C502.451 92.0643 500.041 92.7338 497.631 93.5372C496.872 93.8049 496.202 93.6264 495.756 93.2247C493.167 93.5818 490.579 93.7157 487.99 93.9388C484.375 94.2513 480.805 95.2332 477.323 96.1258C470.584 97.8664 463.889 99.8302 457.15 101.66C456.927 101.794 456.704 101.883 456.436 101.928C445.189 104.026 433.629 104.874 422.516 107.596C417.696 108.801 412.92 110.229 408.011 111.167C403.012 112.148 397.968 112.729 392.925 113.666C387.971 114.603 382.928 115.273 377.974 116.165C372.93 117.058 367.931 118.263 362.888 119.156C358.068 120.004 353.203 119.513 348.383 119.914C343.25 120.361 338.162 121.164 333.074 122.191C326.513 123.485 319.997 125.047 313.436 126.386C309.91 127.457 306.295 128.305 302.502 128.35C302.368 128.35 302.234 128.35 302.1 128.305C297.191 130.046 292.192 131.429 286.97 131.652C286.033 131.697 285.408 131.251 285.051 130.626C257.826 135.535 230.69 140.802 203.42 145.399C182.666 148.88 161.377 150.71 142.453 161.377C141.873 162.18 141.114 162.671 140.132 162.761C140.043 163.028 139.864 163.118 139.641 162.984C138.436 164.591 136.696 165.528 134.955 166.42C134.776 167.09 134.286 167.313 133.705 167.402C128.796 171.732 124.467 176.596 120.405 181.774C120.003 182.443 119.646 183.113 119.245 183.782C117.906 187.888 116.344 191.905 114.291 195.743C114.246 197.439 113.621 198.912 112.729 200.34C112.729 200.385 112.684 200.43 112.684 200.474C112.862 201.278 112.684 202.17 112.059 202.75C108.89 214.265 104.829 225.468 101.214 236.849C95.9024 253.72 89.9218 270.412 85.4587 287.595C81.174 304.019 82.6915 319.373 90.0557 334.547C94.1618 343.027 97.8662 351.686 102.24 360.076C128.707 410.555 152.808 462.193 179.319 512.672C187.397 528.069 195.252 543.646 203.152 559.178C213.239 578.994 229.886 589.884 251.131 594.615C253.184 595.061 255.282 595.508 257.781 594.794C255.996 592.116 252.916 591.669 250.684 589.438C253.541 589.884 255.951 590.33 258.406 590.643C259.923 590.821 262.155 590.196 261.842 588.813C260.503 583.457 265.324 585.332 267.243 583.77C267.198 582.252 265.636 582.966 265.011 582.297C263.851 582.207 262.646 582.118 261.485 582.029C252.514 580.288 244.882 576.093 238.545 569.577L238.723 569.354L238.5 569.577C232.743 565.381 229.306 559.312 225.2 553.688C224.709 553.018 224.664 552.394 225.2 551.724C226.048 550.608 226.762 551.501 227.387 551.903C230.154 553.599 232.653 555.83 235.197 557.794C240.509 561.9 246.802 563.641 252.559 566.676C254.166 567.524 256.174 568.327 257.379 565.783C253.586 563.775 249.97 561.588 246.578 558.954C240.151 554.893 233.412 551.099 230.913 543.021C238.857 549.671 248.051 553.866 257.29 558.106C258.406 558.464 259.477 558.776 260.593 559.133C261.307 558.865 261.932 558.999 262.378 559.624C262.958 559.713 263.494 559.802 264.074 559.936C264.788 559.758 265.368 559.936 265.859 560.472C266.439 560.606 266.975 560.695 267.555 560.829C270.188 560.74 272.822 560.695 275.455 560.606L276.481 560.16L277.106 558.062L277.017 557.973C264.029 557.749 254.567 549.537 244.258 543.333C240.776 541.236 238.054 538.201 235.421 535.077C233.858 533.247 233.546 531.908 235.153 529.721C236.983 535.434 241.714 537.933 246.578 540.031C256.442 544.226 266.082 549.091 276.66 551.412C278.535 551.813 280.364 552.17 282.239 551.501C282.016 550.965 281.793 550.43 281.525 549.85C278.847 550.698 276.66 549.626 274.607 548.109C273.893 548.288 273.268 548.109 272.777 547.529C267.957 547.529 264.654 544.226 260.994 541.861C255.371 538.245 249.301 535.077 244.838 529.899C243.945 528.828 242.651 527.98 242.785 526.061C252.113 530.613 260.682 536.416 270.322 540.031C271.929 540.968 273.625 541.325 275.455 541.236C276.348 541.013 277.151 541.191 277.82 541.771C278.49 541.861 279.115 541.95 279.784 542.039C280.588 541.727 281.346 541.37 282.864 540.745C272.509 537.933 263.717 533.202 255.505 527.221C265.948 532.042 276.615 536.103 287.595 539.361C290.273 537.04 288.264 536.416 286.3 535.791C280.409 533.916 274.741 531.64 269.876 527.712C263.583 525.034 258.316 520.884 253.318 516.242C252.47 515.439 252.336 514.992 252.916 514.368C253.675 513.52 253.987 514.591 254.523 514.903C266.261 522.223 278.758 527.088 292.861 526.731C293.62 525.972 295.182 526.373 295.495 524.677C287.282 523.472 279.249 521.732 271.929 517.67C268.135 517.09 265.1 515.126 262.423 512.448C261.619 511.645 260.548 510.842 261.351 509.503C262.155 508.164 263.404 508.833 264.476 509.146C265.859 509.503 267.332 509.771 268.314 510.976C271.884 510.842 275.5 512.761 279.025 510.752C275.767 508.833 272.108 507.316 270.635 502.317C275.232 503.835 278.892 505.798 282.417 508.119C283.042 508.208 283.623 508.298 284.247 508.387C285.72 504.459 281.569 505.307 279.918 503.388C282.953 503.477 285.408 504.236 287.639 505.664C288.264 505.62 288.934 505.575 289.559 505.531C289.514 505.218 289.559 504.95 289.737 504.727C289.38 504.415 288.978 504.102 288.621 503.79C278.936 497.229 267.421 493.212 260.012 483.438C265.547 485.937 270.412 489.597 275.991 491.963C280.007 493.659 283.935 495.578 288.22 496.426C289.469 496.693 291.076 496.783 291.522 495.221C291.924 493.703 290.362 493.659 289.38 493.078C284.872 490.311 280.498 487.41 276.035 484.598C275.321 484.152 274.696 483.84 275.366 483.081C275.767 482.679 276.392 482.411 277.24 482.992C278.847 484.107 280.766 484.732 282.462 485.803C291.031 491.159 300.85 490.936 310.357 491.918C312.053 491.248 313.526 490.49 312.053 488.347C309.509 488.704 307.233 487.946 305.046 486.785C293.665 483.661 282.462 480.224 273.625 471.789C268.537 468.085 264.074 463.755 260.414 458.667C260.191 458.4 259.968 458.132 259.745 457.819C255.014 453.847 252.738 448.313 250.015 443.002C248.944 442.422 248.453 441.44 248.364 440.279C247.292 439.387 246.802 438.182 246.534 436.843C244.972 435.771 244.168 434.254 243.99 432.424C235.688 419.124 229.574 404.708 222.924 390.56C222.567 390.471 222.477 390.247 222.611 389.89C214.667 374.448 206.767 358.961 198.778 343.518C188.736 324.148 178.649 304.778 168.607 285.408C167.67 283.623 166.688 281.837 166.42 279.784C166.286 279.561 166.152 279.293 166.019 279.07C164.858 277.33 163.921 275.5 163.564 273.402C162.76 272.822 162.403 272.019 162.493 271.037L157.628 260.057V260.013C157.628 259.968 157.628 259.968 157.583 259.923C157.226 258.897 156.914 257.915 156.557 256.888C154.28 253.139 152.54 249.167 151.424 244.927C150.888 243.811 150.308 242.74 149.773 241.624C147.006 240.464 144.283 239.259 147.095 235.555C147.407 235.153 147.006 234.216 146.916 233.546C146.693 233.1 146.47 232.609 146.247 232.163C130.67 207.035 138.838 178.828 159.681 164.367C161.555 163.073 163.742 161.957 165.929 161.511C176.239 159.458 186.638 157.673 196.993 155.798C197.573 155.664 198.109 155.53 198.689 155.352C199.492 154.816 200.34 154.504 201.322 154.816L203.107 154.504C204.178 153.834 205.339 153.7 206.544 153.745C207.124 153.656 207.704 153.611 208.285 153.522C210.829 152.585 213.417 152.138 216.095 152.272C216.988 152.094 217.836 151.915 218.728 151.692C224.664 149.773 225.111 149.862 227.61 155.218C228.681 157.494 230.466 158.521 232.743 159.235C242.74 162.314 252.559 160.127 262.423 158.342C270.813 156.825 279.204 155.218 287.595 153.7C288.175 153.611 288.711 153.477 289.291 153.388C291.835 152.361 294.468 151.826 297.191 151.871C297.771 151.781 298.351 151.737 298.931 151.647C300.806 150.487 302.948 150.442 305.09 150.219L306.831 150.041C307.322 149.505 307.902 149.416 308.572 149.728C309.687 149.237 310.803 148.791 312.008 149.103C312.544 148.657 313.079 148.345 313.793 148.746C314.374 148.612 314.954 148.523 315.534 148.389C334.904 143.926 354.453 140.356 374.001 136.696C418.767 128.35 463.487 119.691 507.896 109.381C509.146 109.114 510.484 109.114 511.734 108.98C519.634 106.971 527.489 104.963 535.389 102.954L538.692 101.615C538.692 101.303 538.825 101.125 539.138 101.035C538.29 98.4466 536.326 99.6963 534.764 99.8748C512.895 102.642 491.382 107.596 469.647 111.345C448.491 114.96 427.381 118.932 406.27 122.682C379.937 127.368 353.56 132.099 327.183 136.696C312.053 139.329 296.878 141.828 281.569 143.212C280.052 143.346 278.535 143.212 275.767 143.212C281.168 141.159 285.676 140.356 290.228 139.775C300.583 138.392 310.714 135.892 320.934 134.196C333.565 132.143 346.017 129.466 358.603 127.279C393.639 121.253 428.541 114.692 463.532 108.399C486.517 104.293 509.458 99.9195 532.354 95.2332C533.871 94.9207 535.523 94.9654 537.085 94.8761C538.87 93.4033 540.834 92.5999 543.155 92.957C545.074 91.9751 547.082 91.3502 549.314 91.5287L551.813 91.0378C563.685 88.4938 575.557 85.9498 587.429 83.4504C591.134 82.6917 594.838 82.1115 598.542 81.3528C599.971 81.085 601.31 80.6833 602.827 81.8883C600.908 84.1199 598.453 84.9679 596.043 85.8159C590.286 87.8243 584.528 89.7881 578.815 91.8412C577.967 92.1536 576.494 92.3321 577.03 93.7603C577.342 94.6529 578.458 94.4744 579.351 94.4298C593.633 93.8496 607.647 92.5553 619.876 83.7182C623.893 80.8172 629.427 80.8172 634.069 78.8088C635.944 78.0054 638.131 77.693 640.005 76.5326C649.556 70.5519 660.089 71.4446 670.444 73.0067C687.091 75.506 701.195 82.9149 711.728 96.3936L711.683 96.3489C712.04 96.6614 712.353 96.9291 712.71 97.2416L712.665 97.1969C716.057 100.009 718.69 103.445 720.61 107.373C743.773 154.816 766.803 202.349 790.19 249.703C803.044 275.723 816.567 301.386 829.778 327.228C830.358 328.343 830.716 329.638 831.162 330.798C832.01 331.557 832.367 332.539 832.545 333.61C840.133 346.642 843.48 360.032 837.946 375.028C829.734 397.478 822.28 420.195 814.47 442.779C813.22 446.438 809.694 448.491 807.953 451.839L807.864 452.017L807.909 452.241L807.686 452.33C807.641 452.91 807.552 453.49 807.507 454.115C809.069 454.472 811.97 453.401 810.81 456.793C806.793 468.486 803.803 480.805 793.805 489.374C785.995 496.069 777.783 502.139 767.294 504.102C766.714 504.236 766.134 504.37 765.598 504.504C750.513 510.083 734.936 513.966 719.181 517.224C716.057 517.893 716.013 516.688 716.191 514.011C716.593 508.521 718.914 503.656 720.61 498.613C727.617 477.413 735.07 456.391 741.765 435.102C744.934 425.015 751.495 418.678 760.332 413.902C766 409.528 773.052 409.617 779.523 407.877C784.834 406.449 790.369 406.002 795.59 404.128C800.009 402.521 803.847 399.977 806.57 396.005C807.239 395.068 808.043 393.996 807.373 392.836C806.704 391.676 805.365 391.765 804.249 392.033C799.295 393.104 794.385 394.264 789.431 395.335C778.14 397.79 766.803 400.2 755.199 400.602L753.458 400.914C752.566 402.878 751.271 404.172 749.04 404.663C714.361 412.429 679.459 418.99 644.424 424.658C626.303 427.604 608.585 432.424 590.598 436.039C561.32 441.886 531.952 447.51 502.585 452.91C478.751 457.284 455.008 462.015 431.219 466.567C429.389 466.924 427.47 467.147 425.64 467.371C424.212 467.549 422.427 467.951 421.757 466.344C421.132 464.827 421.802 463.22 423.051 462.059C424.346 460.854 425.64 459.649 424.792 457.596L424.747 457.552C417.919 455.409 412.429 459.025 411.938 466.032C411.492 472.146 411.269 472.369 405.02 472.548C404.44 472.548 403.815 472.414 403.28 472.592C394.621 475.226 386.409 474.378 378.107 470.539C373.376 468.352 368.065 470.718 363.2 471.745C354.721 473.53 346.285 475.494 337.671 476.609C337.091 476.699 336.466 476.654 335.975 476.877C334.279 477.502 331.512 477.591 331.825 479.823C332.182 482.456 334.904 482.01 336.823 481.697C339.367 481.296 341.822 480.492 344.411 480.046C339.992 481.519 335.707 483.081 334.324 488.213C335.083 488.347 335.841 488.481 336.645 488.615C340.84 488.303 344.812 487.41 348.785 485.893C356.729 482.858 365.03 483.572 373.153 485.536C378.107 486.741 378.554 488.571 374.939 492.186C372.439 494.64 370.788 497.675 368.556 500.309C368.021 502.362 367.53 504.415 366.994 506.468C368.601 508.699 367.53 510.931 366.95 513.118C363.691 526.195 359.05 538.826 355.078 551.635C353.203 557.705 351.195 563.775 349.677 569.934C348.517 574.709 345.705 576.673 341.019 576.45C340.037 579.128 336.154 579.217 335.708 582.386C338.028 582.431 340.305 582.431 342.625 582.475C343.607 582.475 344.857 582.074 345.259 583.279C345.705 584.618 344.5 585.287 343.518 585.912C342.893 586.314 342.268 586.626 341.554 586.849C331.601 589.884 321.559 592.428 311.205 593.633C310.669 593.722 310.089 593.767 309.553 593.856C307.322 594.972 304.867 594.972 302.457 595.106C301.877 595.24 301.341 595.374 300.761 595.508C300.002 596.266 299.11 596.49 298.083 596.177C296.923 596.534 295.762 597.114 294.468 596.802C292.861 597.739 291.165 598.052 289.335 597.739C288.487 597.828 287.639 597.962 286.747 598.052C278.758 599.48 270.724 600.997 262.601 601.354C260.503 601.444 258.45 601.399 256.442 601.22V616.351C257.245 616.261 258.049 616.172 258.897 616.083C260.28 615.458 261.708 615.279 263.181 615.413C271.84 613.271 280.588 609.299 289.425 608.004C290.005 607.871 290.54 607.781 291.121 607.647C297.503 606.532 303.93 605.014 310.312 603.898C310.892 603.854 311.473 603.764 312.008 603.72C317.989 601.89 324.237 602.292 330.352 601.354C330.887 601.265 331.468 601.131 332.003 601.042C343.518 598.141 355.122 597.65 366.905 595.999L367.262 595.775L367.664 595.865C376.322 593.544 385.159 591.937 394.041 590.509C394.844 590.018 395.692 589.929 396.585 590.107C403.904 587.385 411.76 586.983 419.302 585.332C429.121 583.189 439.119 581.672 449.027 579.887C449.339 579.887 449.607 579.842 449.92 579.842C462.372 577.298 474.824 574.665 487.321 572.299C502.986 569.354 518.697 566.631 534.362 563.864C535.21 563.73 536.058 563.73 536.951 563.685L537.219 563.641C537.754 563.551 538.245 563.418 538.781 563.328C539.361 563.239 539.897 563.194 540.477 563.105C544.181 561.811 548.02 561.231 551.902 560.784C553.063 560.249 554.268 559.981 555.562 560.16C569.487 557.482 583.368 554.804 597.293 552.126C597.873 552.037 598.409 551.992 598.989 551.903C604.523 550.787 610.057 549.716 615.592 548.6C616.172 548.555 616.752 548.511 617.332 548.466C619.564 547.395 621.929 547.172 624.339 547.038C624.92 546.949 625.455 546.859 626.035 546.725C633.489 544.762 641.032 542.976 648.753 542.307C649.735 541.593 650.895 541.548 652.056 541.593C656.117 540.343 660.268 539.718 664.463 539.272C664.999 539.138 665.579 539.004 666.115 538.826C682.093 535.166 697.401 527.623 713.513 524.722C713.736 524.231 714.227 523.874 714.941 523.785C728.152 521.776 741.319 521.464 754.039 517.536C759.618 515.796 765.33 514.412 770.999 513.029C775.774 510.886 780.728 509.056 785.593 507.137C786.396 506.557 787.2 505.888 788.048 505.397C801.973 497.408 811.435 485.982 816.478 470.584C826.966 438.717 837.946 407.073 848.702 375.296C849.773 372.127 850.487 368.914 850.889 365.566C852.273 352.355 847.229 340.796 841.338 329.504ZM122.994 237.117C123.128 236.135 123.351 234.93 124.868 235.733C126.296 236.492 128.082 245.195 126.966 246.534C126.207 247.471 125.627 249.167 124.02 248.632C122.592 248.185 122.592 246.623 122.547 245.329C122.503 244.749 122.503 244.168 122.414 243.231C122.592 241.446 122.726 239.259 122.994 237.117ZM120.271 256.442C120.361 255.416 120.896 254.434 122.101 254.478C123.619 254.568 123.574 255.996 123.976 256.888C123.886 257.915 123.619 258.808 122.503 258.54C121.432 258.272 120.137 257.96 120.271 256.442ZM116.031 261.396C116.299 260.995 116.522 260.638 116.79 260.236C116.924 259.566 116.924 258.406 117.281 258.272C118.397 257.915 118.754 258.986 118.709 259.79C118.709 261.084 117.906 262.423 118.441 263.583C117.236 261.932 115.183 263.449 113.487 263.137C113.353 261.039 114.96 261.619 116.031 261.396ZM113.086 276.482C114.112 278.044 114.469 279.293 113.443 280.543C113.309 280.677 112.55 280.588 112.371 280.365C111.434 278.936 112.148 277.865 113.086 276.482ZM100.455 289.425C100.187 287.684 98.3572 286.033 101.571 285.14C103.222 284.694 101.615 282.73 102.954 281.168C104.472 282.909 106.168 284.248 107.016 285.988C108.131 288.309 108.801 289.648 111.702 287.818C113.577 286.613 113.621 289.202 114.38 290.228C115.228 291.389 115.273 292.326 113.755 292.951C110.765 294.2 107.908 298.664 104.695 292.817C104.025 291.701 100.857 292.192 100.455 289.425ZM109.515 320.176C109.426 320.845 108.622 321.024 108.131 320.667C106.034 319.149 105.454 317.141 106.346 314.642C106.614 314.775 106.837 314.865 107.016 314.999C108.667 316.338 109.827 317.944 109.515 320.176ZM129.376 349.053C127.368 349.767 127.011 348.294 126.564 346.776C124.467 339.234 123.262 331.423 119.691 324.327C118.888 324.148 118.04 324.014 117.236 323.836C116.165 324.684 116.254 327.094 114.469 326.647C112.595 326.157 113.398 323.925 112.862 322.541C111.881 319.997 113.755 320.756 115.094 320.533C116.344 320.354 116.076 319.06 116.031 318.034C115.987 314.597 117.549 313.794 120.851 315.445L121.075 315.49V315.713C121.878 316.293 122.19 317.096 121.923 318.078C122.905 319.417 122.369 320.935 122.414 322.407C123.217 330.664 127.055 337.939 130.135 345.437C130.715 346.999 131.295 348.338 129.376 349.053ZM250.729 497.675C252.514 500.353 254.21 502.808 255.728 505.307C256.263 506.155 256.487 507.36 255.371 507.941C254.567 508.342 253.675 507.717 253.095 507.048C250.908 504.37 250.015 501.335 250.729 497.675ZM194.404 412.117C192.44 407.475 193.69 402.298 192.128 397.612C193.556 402.342 196.725 406.761 194.404 412.117ZM181.64 445.501C177.667 442.243 177.667 437.557 175.347 434.12C178.069 437.334 182.488 439.521 181.64 445.501ZM158.967 405.556C159.324 404.753 159.547 403.548 160.484 403.681C161.957 403.815 161.912 405.288 162.046 406.404C162.671 412.474 163.742 418.41 165.706 424.212C167 428.05 170.66 430.862 170.303 435.593C164.635 436.262 163.207 431.71 162.359 428.363C161.466 424.837 160.083 421.534 158.788 418.231C157.137 413.902 157.092 409.707 158.967 405.556ZM144.328 301.966C141.471 296.253 142.141 290.005 141.293 283.846C145.8 289.425 145.131 295.673 144.328 301.966ZM138.481 266.484C138.659 266.306 139.418 266.261 139.597 266.44C141.159 268.046 139.24 269.475 139.329 271.037C137.544 269.608 137.231 268.091 138.481 266.484ZM480.938 509.637C479.912 509.681 478.751 509.101 478.975 507.896C479.376 505.888 481.162 505.486 482.858 505.352C483.795 505.307 484.42 505.977 484.464 507.137C483.572 508.253 482.634 509.592 480.938 509.637ZM496.872 503.656C495.444 503.745 494.015 503.835 492.677 504.504C491.338 505.173 490.132 504.95 489.642 503.254C489.195 501.737 489.686 500.487 491.159 500.175C493.614 499.684 495.488 498.122 498.077 496.426C498.345 498.88 495.444 500.264 497.943 502.094C498.925 502.853 497.765 503.611 496.872 503.656ZM692.313 495.756C694.455 496.158 692.893 498.211 693.206 499.461C692.402 498.39 691.599 497.363 690.796 496.292C691.331 496.113 691.867 495.667 692.313 495.756ZM632.864 510.351C634.872 509.994 636.613 509.413 637.952 507.494C639.291 505.575 641.433 508.432 643.129 507.182C642.504 505.352 641.21 504.95 639.425 505.084C637.863 505.218 636.301 505.084 634.739 504.861C631.213 504.37 630.186 502.629 631.659 499.148C634.024 493.569 637.729 489.195 642.415 485.536C642.103 482.858 645.584 482.59 645.896 479.957C646.075 478.662 648.039 480.135 648.574 480.715C650.181 482.545 648.53 486.473 645.941 487.499C645.138 489.776 641.523 491.472 642.817 493.614C644.379 496.247 646.611 492.23 648.842 492.721C651.342 493.302 652.323 490.088 653.216 490.043C656.519 489.776 660.134 488.972 663.258 491.025C664.017 491.516 665.356 491.516 665.311 492.9C661.696 493.212 660 495.265 659.063 499.728C658.84 500.889 657.724 501.871 657.054 502.897C657.501 503.522 658.706 504.058 658.17 504.861C657.144 506.423 655.76 504.816 654.51 504.906C653.975 505.709 653.395 506.512 652.859 507.316C652.814 507.896 652.502 508.119 651.966 507.851C649.467 508.253 646.878 507.45 644.424 508.342C644.2 509.012 643.665 509.771 643.843 510.306C644.245 511.6 647.235 511.556 646.164 513.252C645.093 514.992 642.728 515.796 640.63 516.197C638.175 516.688 635.587 515.349 633.176 517.313C632.284 518.027 631.123 516.108 630.052 515.439C632.016 514.323 629.784 510.931 632.864 510.351ZM663.303 504.281C663.169 505.084 662.544 505.531 661.741 505.441C660.982 505.352 660.179 504.95 660.491 504.102C660.669 503.522 661.473 503.21 661.875 502.897C663.08 502.897 663.437 503.477 663.303 504.281ZM619.742 502.987C620.635 503.076 621.171 503.79 621.126 504.683C621.126 505.575 620.68 506.423 619.564 506.379C618.403 506.289 617.6 505.486 617.645 504.415C617.734 503.433 618.627 503.031 619.742 502.987ZM604.925 504.861C605.55 503.433 606.041 503.254 607.379 504.281C610.236 506.512 612.601 504.95 614.699 502.808C614.297 506.869 612.066 508.878 608.004 508.342C605.773 508.03 604.791 510.128 602.202 510.574C603.273 508.432 604.166 506.691 604.925 504.861ZM588.634 484.42C588.723 483.081 589.125 481.742 590.821 481.787C592.115 481.787 593.454 481.965 593.945 483.661C593.454 485.357 591.937 485.982 590.419 486.339C589.304 486.518 588.545 485.625 588.634 484.42ZM537.353 483.259C530.345 487.723 523.026 491.427 515.215 494.06C513.028 494.774 511.556 497.541 508.298 496.203C523.74 485.58 540.209 477.547 557.392 470.406C556.41 472.28 555.875 473.351 556.857 475.627C557.749 477.77 553.018 478.261 551.947 478.038C545.877 476.832 541.682 480.537 537.353 483.259ZM540.521 489.419C540.834 487.633 542.753 487.99 544.003 487.589C544.806 487.321 545.699 487.678 545.833 488.838C545.208 490.445 543.78 490.668 542.351 490.713C541.503 490.758 540.343 490.356 540.521 489.419ZM690.93 523.696C664.642 528.873 638.309 533.738 612.066 539.049C601.845 541.102 591.714 543.601 581.27 544.672C579.574 545.208 577.833 545.788 576.003 545.61C575.155 546.011 574.352 546.458 573.326 546.145C572.478 546.279 571.63 546.458 570.782 546.592C565.158 548.868 559.133 548.868 553.241 549.894C550.876 550.296 548.377 551.412 544.717 550.474C548.421 548.287 551.813 548.6 554.759 547.573C558.865 546.145 563.105 545.253 567.3 544.092C568.238 543.066 570.469 542.619 568.55 540.477C566.095 537.799 567.881 536.103 570.335 535.389C572.924 534.586 575.111 533.514 576.718 531.283C578.012 529.542 579.395 529.498 580.243 531.595C581.136 533.827 584.126 536.192 580.02 538.513C579.083 539.049 579.663 540.656 580.377 541.682C587.251 541.95 593.901 540.388 600.551 538.915C614.565 535.835 628.446 532.22 642.594 529.587C659.197 526.507 675.755 523.115 692.313 519.902C694.813 519.411 697.401 518.831 700.302 520.437C697.401 522.669 694.054 523.071 690.93 523.696Z" fill="#171A1F"/>
<path d="M280.097 593.365C277.776 594.972 275.455 596.4 272.956 593.678C271.126 594.57 269.296 593.633 267.511 593.678C265.145 593.722 264.342 592.205 264.476 590.42C264.61 588.634 263.985 586.314 266.573 585.287C267.778 584.796 270.456 584.975 269.608 582.966C268.983 581.449 266.663 580.735 264.788 582.297C265.413 582.966 266.975 582.252 267.02 583.77C265.101 585.332 260.28 583.457 261.619 588.813C261.976 590.197 259.745 590.821 258.183 590.643C255.773 590.375 253.318 589.884 250.461 589.438C252.693 591.669 255.773 592.116 257.558 594.794C255.058 595.508 252.961 595.061 250.908 594.615C229.708 589.929 213.016 578.994 202.929 559.178C195.029 543.646 187.219 528.07 179.096 512.672C152.585 462.238 128.439 410.555 102.017 360.077C97.6432 351.73 93.9388 343.027 89.8327 334.547C82.4685 319.373 80.951 304.064 85.2356 287.595C89.6988 270.412 95.6794 253.764 100.991 236.849C104.561 225.468 108.667 214.265 111.836 202.75C111.524 203.063 111.077 203.241 110.586 203.286C110.497 203.643 110.408 204 110.274 204.357C103.044 225.959 95.8579 247.561 88.6722 269.162L80.7278 289.559C76.1754 306.92 79.2996 323.389 87.2887 339.858C98.4465 362.844 109.828 385.695 121.075 408.591C144.64 456.525 169.054 504.013 193.288 551.59C200.028 564.801 207.169 577.789 219.933 586.492C232.787 595.24 246.311 601.89 262.333 601.265C270.456 600.953 278.445 599.435 286.479 597.962C285.14 595.418 281.034 596.579 280.097 593.365ZM269.965 597.605C267.555 597.918 265.145 599.971 262.601 597.472C263.315 596.311 264.163 596.266 264.788 596.445C266.663 596.936 268.582 594.615 270.367 596.579C270.501 596.668 270.144 597.561 269.965 597.605Z" fill="#171A1F"/>
<path d="M272.956 593.678C275.188 590.687 277.598 590.911 280.097 593.365C277.776 594.927 275.455 596.4 272.956 593.678Z" fill="#171A1F"/>
<path d="M536.575 182.891C564.387 177.302 586.86 191.235 597.432 212.204L597.927 213.207V213.208C605.5 229.019 613.148 244.807 620.683 260.618L623.904 267.395L623.905 267.396C628.663 277.468 634.287 287.431 637.26 298.505L637.539 299.581V299.582C639.965 309.284 636.038 319.044 627.65 324.451C620.867 328.851 613.199 330.663 605.59 332.006L605.589 332.005C593.221 334.282 580.808 336.382 568.408 338.523L568.361 338.531L568.314 338.535C567.728 338.58 567.186 338.622 566.649 338.705L566.366 338.748L566.104 338.635C565.539 338.393 564.984 338.465 564.32 338.849L563.938 339.07L563.519 338.937C563.104 338.806 562.699 338.686 562.285 338.563C561.873 338.441 561.452 338.315 561.019 338.178L560.628 338.055L560.437 337.693C559.26 335.471 557.928 333.169 556.766 330.843L556.765 330.842C554.54 326.371 552.628 321.746 550.657 317.222C548.68 312.682 546.635 308.223 544.125 303.995L544.106 303.963L544.091 303.931C543.91 303.569 543.751 303.253 543.557 302.943L543.498 302.849L543.462 302.746C540.627 294.729 536.369 287.555 532.656 279.768L532.655 279.766C519.222 251.381 505.7 223.088 492.22 194.745L492.123 194.541V194.315C492.123 193.696 492.122 193.036 492.17 192.37L492.182 192.213L492.239 192.069C492.277 191.975 492.316 191.868 492.361 191.742C492.405 191.622 492.455 191.484 492.507 191.355L492.689 190.9L492.963 190.822L493.035 190.313L493.719 190.168C495.733 189.74 497.982 189.137 500.097 188.777L500.104 188.775C512.344 186.802 524.502 185.341 536.573 182.891H536.575ZM555.42 210.061C547.246 208.111 539.078 208.718 530.527 210.045C531.231 211.53 531.865 212.884 532.525 214.209L532.888 214.925L532.89 214.929C548.428 245.649 563.251 276.723 577.759 307.926L577.855 308.125C578.076 308.552 578.248 308.728 578.341 308.795C578.405 308.843 578.444 308.853 578.54 308.843C578.702 308.827 578.871 308.766 579.232 308.647C579.513 308.555 579.928 308.425 580.392 308.42C580.961 308.331 581.565 308.286 582.163 308.286H582.291L582.414 308.318C583.942 308.715 585.447 308.644 587 308.363C588.613 308.071 590.084 307.601 591.797 307.197L591.8 307.196C595.045 306.44 597.496 305.72 599.291 304.89C601.08 304.063 602.116 303.174 602.671 302.14C603.225 301.108 603.386 299.767 603.077 297.847C602.767 295.92 602 293.52 600.822 290.453L600.814 290.432L600.808 290.411C600.777 290.317 600.735 290.217 600.677 290.077C600.631 289.966 600.572 289.825 600.52 289.675C589.777 265.563 577.877 241.982 566.006 218.375L566.005 218.373C563.82 214.002 560.228 211.199 555.421 210.061H555.42Z" fill="#171A1F" stroke="#171A1F" stroke-width="2"/>
<path d="M304.936 221.439C330.593 218.584 353.203 230.242 364.388 253.31L364.912 254.416V254.418C365.717 256.171 365.975 257.76 365.354 259.113C364.737 260.456 363.4 261.247 361.816 261.767H361.815C359.453 262.539 356.908 262.974 354.646 263.528L354.44 263.578L354.231 263.541C352.411 263.214 351.068 262.957 349.723 263.63L349.441 263.771L349.13 263.725C347.718 263.517 346.484 263.579 345.36 264.159L345.145 264.271H344.901C344.44 264.271 343.982 264.259 343.543 264.248C343.1 264.237 342.678 264.227 342.269 264.227H342.135L342.007 264.191C340.73 263.845 339.329 263.491 338.102 262.789C336.822 262.058 335.741 260.963 335.007 259.19L335.006 259.188C332.371 252.785 328.715 248.649 324.193 246.603C319.669 244.555 314.106 244.523 307.499 246.682L307.498 246.681C305.448 247.357 304.181 248.253 303.519 249.37C302.865 250.473 302.683 251.991 303.247 254.185L303.527 255.222C306.526 265.852 312.828 273.713 323.472 277.866C323.65 277.933 323.829 278 324.008 278.067L324.544 278.268L324.575 278.28L324.606 278.294C324.961 278.455 325.337 278.615 325.697 278.756L326.052 278.89L326.091 278.903L326.129 278.921C326.552 279.116 326.998 279.311 327.43 279.486L327.854 279.654L327.866 279.659C335.151 282.564 342.368 285.505 349.641 288.36H349.642C371.987 297.155 391.11 309.794 400.988 333.357C406.28 345.994 405.106 358.393 395.661 367.233V367.234C389.444 373.049 381.613 375.665 373.387 376.646L372.59 376.736C358.053 378.291 344.656 376.429 333.455 370.593C322.24 364.749 313.303 354.96 307.644 340.811C307.053 339.334 306.646 338.05 306.495 336.939C306.343 335.82 306.438 334.787 306.952 333.896C307.466 333.007 308.311 332.408 309.35 331.978C310.381 331.55 311.685 331.253 313.24 331.015H313.241C319.456 330.069 325.766 329.798 331.938 329.398H331.942C333.884 329.28 335.573 329.542 336.945 330.411C338.331 331.289 339.247 332.693 339.829 334.557L340.067 335.262C341.315 338.752 343.381 341.712 345.287 345.179H345.286C347.223 348.635 350.489 350.692 354.05 351.61C357.626 352.532 361.42 352.28 364.273 351.197C366.194 350.455 368.049 349.518 369.37 348.287C370.662 347.083 371.412 345.636 371.264 343.776C370.532 334.648 365.993 327.495 357.765 322.972L358.082 322.393L357.888 322.296L357.36 322.636C356.891 321.905 356.238 321.43 355.436 321.044C354.57 320.627 353.74 320.395 352.711 319.994L348.348 318.335C338.145 314.484 327.819 310.751 317.663 306.688C304.613 301.491 293.686 294.459 285.571 285.046C277.449 275.624 272.187 263.864 270.401 249.289L270.389 249.19L270.396 249.091C270.441 248.517 270.488 247.898 270.584 247.274L270.618 247.052L270.745 246.864C271.269 246.093 271.282 245.282 270.971 244.229L270.881 243.928L270.98 243.629C271.248 242.826 271.516 242.022 271.784 241.219C272.052 240.416 272.319 239.612 272.587 238.809L272.694 238.487L272.976 238.297C274.364 237.359 275.114 235.996 275.613 234.33L275.731 233.935L276.095 233.738C276.962 233.269 277.543 232.61 277.857 231.702L278.081 231.057L278.763 231.029C279.161 231.013 279.351 230.908 279.443 230.822C279.531 230.741 279.649 230.568 279.68 230.167L280.352 230.218L279.926 229.581L279.97 229.536L281.881 227.626L281.805 228.615C282.081 228.349 282.342 228.074 282.679 227.749C283.045 227.396 283.556 226.931 284.133 226.735C284.458 226.625 284.858 226.581 285.273 226.729C285.682 226.873 285.982 227.16 286.2 227.477C286.609 228.07 286.872 228.981 287.064 230.173L287.066 230.183C287.08 230.27 287.096 230.339 287.109 230.393C287.248 230.343 287.429 230.258 287.675 230.13C287.951 229.986 288.333 229.776 288.69 229.63L288.7 229.626C292.119 228.273 295.636 227.954 299.135 227.95C298.917 227.72 298.706 227.484 298.51 227.246C298.121 226.773 297.757 226.249 297.522 225.706C297.291 225.169 297.141 224.505 297.352 223.831L297.355 223.819C297.613 223.03 298.129 222.503 298.765 222.183C299.36 221.883 300.035 221.777 300.643 221.731C301.25 221.686 301.916 221.696 302.479 221.691C303.074 221.687 303.583 221.667 304.01 221.585L304.033 221.581C304.174 221.558 304.326 221.534 304.47 221.512C304.616 221.489 304.754 221.467 304.881 221.446L304.908 221.442L304.936 221.439ZM384.249 341.057C384.175 341.249 384.101 341.448 384.024 341.651C383.754 342.366 383.437 343.191 382.979 343.836C382.487 344.527 381.765 345.103 380.706 345.151C379.757 345.194 378.708 344.798 377.522 344.058C377.484 344.056 377.421 344.056 377.336 344.067C377.128 344.096 376.868 344.178 376.627 344.319C376.17 344.587 375.856 345.001 375.932 345.674L375.967 346.021C376.105 347.731 375.685 349.126 374.704 350.176C373.972 350.96 372.993 351.474 371.896 351.815C372.118 352.119 372.344 352.309 372.562 352.435C372.982 352.676 373.5 352.762 374.186 352.762C374.528 352.762 374.878 352.741 375.268 352.72C375.645 352.699 376.058 352.679 376.469 352.687C377.198 352.7 378.013 352.804 378.777 353.224C378.779 353.223 378.781 353.223 378.783 353.223C378.97 353.153 379.211 353.024 379.419 352.857C379.635 352.684 379.744 352.531 379.78 352.438C379.797 352.394 379.804 352.378 379.759 352.306L379.753 352.296C379.107 351.236 378.755 350.254 378.706 349.337C378.656 348.397 378.927 347.594 379.401 346.928C380.29 345.679 381.873 344.951 383.111 344.43C384.198 343.961 384.744 343.56 384.998 343.258C385.201 343.017 385.216 342.85 385.174 342.649C385.113 342.364 384.916 341.988 384.536 341.449C384.446 341.321 384.35 341.192 384.249 341.057ZM383.835 350.353C384.187 350.906 384.641 351.247 385.193 351.333C384.653 350.779 384.24 350.499 383.835 350.353ZM330.324 233.856C330.136 233.857 329.918 233.877 329.716 233.907C329.606 233.928 329.536 233.953 329.496 233.972C329.476 233.981 329.463 233.988 329.456 233.993C329.453 233.995 329.45 233.997 329.448 233.998C329.446 234.004 329.439 234.021 329.433 234.058C329.416 234.147 329.413 234.286 329.434 234.505C329.443 234.611 329.457 234.721 329.473 234.846C329.475 234.861 329.476 234.876 329.478 234.892C329.527 234.805 329.583 234.718 329.648 234.633L329.654 234.624C329.807 234.429 330.003 234.226 330.122 234.096C330.21 234 330.274 233.921 330.324 233.856Z" fill="#171A1F" stroke="#171A1F" stroke-width="2"/>
<path d="M666.668 162.555C668.027 162.437 669.385 162.486 670.615 162.945C672.071 163.487 673.242 164.561 674.033 166.32L676.654 172.06C677.309 173.5 677.958 174.944 678.592 176.399L679.22 177.857L679.223 177.864C680.047 179.846 680.469 181.637 679.703 183.088C678.939 184.536 677.211 185.229 675.027 185.697L675.02 185.699C662.889 188.187 650.647 191.202 638.058 191.966L638.057 191.965C637.183 192.021 636.561 192.093 636.124 192.203C635.738 192.3 635.628 192.394 635.608 192.415C635.625 192.387 635.551 192.456 635.635 192.838C635.722 193.239 635.945 193.811 636.35 194.631L636.353 194.636C638.747 199.558 641.522 204.278 644.216 209.126C646.899 213.956 649.485 218.887 651.432 224.138L651.433 224.141C652.267 226.408 653.238 227.618 654.338 228.166C655.427 228.708 656.891 228.723 659.009 228.002L659.448 227.853L659.482 227.874C659.494 227.871 659.506 227.868 659.519 227.866C659.579 227.856 659.676 227.848 659.79 227.86H660.511C662.22 227.74 663.759 227.728 665.334 227.554L666.019 227.468C672.986 226.403 680.036 225.147 687.094 224.208C690.064 223.81 692.214 223.764 693.918 224.775C695.606 225.777 696.638 227.693 697.827 230.424L697.831 230.432C698.35 231.651 698.835 232.88 699.313 234.094C699.794 235.312 700.269 236.516 700.776 237.707L700.778 237.71C701.497 239.417 702.021 240.858 702.267 242.081C702.514 243.308 702.506 244.433 702.022 245.426C701.538 246.423 700.66 247.114 699.546 247.654C698.439 248.191 696.996 248.629 695.232 249.067L695.229 249.068C693.369 249.521 691.514 249.883 689.622 250.199H689.618C682.479 251.359 675.289 252.519 668.144 253.591C667.572 253.681 667.14 253.762 666.814 253.864C666.495 253.964 666.405 254.049 666.39 254.065V254.066C666.386 254.083 666.378 254.143 666.397 254.265C666.429 254.461 666.521 254.749 666.716 255.156L666.947 255.604L666.948 255.606C672.845 266.416 678.533 277.388 683.284 288.818L683.286 288.823C683.649 289.71 684.049 290.238 684.503 290.535C684.938 290.819 685.559 290.978 686.555 290.844L695.592 289.612C704.607 288.362 713.553 286.98 722.373 284.75L722.494 284.72H724.59L724.763 284.788C724.922 284.849 724.995 284.839 725.017 284.834C725.036 284.831 725.1 284.815 725.214 284.701L725.651 284.264L726.237 284.459L726.443 284.528C727.022 284.65 727.613 284.734 728.271 284.841C728.924 284.948 729.622 285.076 730.299 285.284C731.685 285.71 733.026 286.49 733.899 288.149L734.769 289.775C736.794 293.584 738.779 297.502 740.211 301.639L740.212 301.642C740.78 303.298 740.797 304.821 740.062 306.076C739.339 307.312 738.02 308.055 736.439 308.468L736.438 308.467C734.885 308.878 733.251 309.196 731.682 309.465C728.179 310.161 724.655 310.689 721.166 311.234C717.663 311.781 714.188 312.344 710.742 313.117L710.743 313.118C698.299 315.916 685.833 318.964 673.227 321.25L670.704 321.697C668.297 322.113 666.261 322.06 664.547 321.163C662.824 320.261 661.62 318.61 660.641 316.279L660.64 316.277C648.78 287.92 635.271 260.323 622.054 232.548C618.084 224.231 614.026 215.967 609.964 207.699C605.903 199.432 601.838 191.159 597.863 182.83L597.862 182.828C597.118 181.259 596.623 179.864 596.442 178.638C596.26 177.401 596.39 176.263 596.981 175.298C597.569 174.339 598.526 173.694 599.706 173.257C600.88 172.823 602.351 172.568 604.088 172.431L604.089 172.43C613.217 171.721 622.212 169.905 631.254 168.249C642.819 166.105 654.401 164.093 666.079 162.617L666.086 162.616L666.668 162.555ZM722.064 302.139C721.508 302.326 721.114 302.55 720.872 302.8C720.635 303.046 720.484 303.373 720.571 303.951L720.604 304.237C720.628 304.527 720.627 304.819 720.628 305.04C720.63 305.381 720.639 305.621 720.679 305.808C720.697 305.894 720.717 305.944 720.73 305.969C720.737 305.981 720.741 305.987 720.743 305.99C720.745 305.992 720.745 305.992 720.746 305.993C720.747 305.993 720.751 305.997 720.761 306.001C720.771 306.007 720.79 306.014 720.82 306.023C720.883 306.04 720.992 306.058 721.168 306.054C721.866 306.03 722.48 306 722.913 305.816C723.101 305.736 723.189 305.651 723.235 305.577C723.279 305.506 723.348 305.348 723.318 305.002C723.192 303.615 722.931 302.605 722.064 302.139ZM717.204 299.115L717.191 299.117C716.793 299.178 716.298 299.563 715.846 300.408C715.414 301.213 715.149 302.213 715.092 303.019L715.091 303.025C715.053 303.522 715.084 304.39 715.263 305.081C715.352 305.424 715.455 305.634 715.534 305.736C716.941 305.549 717.928 304.212 717.575 302.378L717.543 302.214L717.567 302.048C717.693 301.17 717.697 300.238 717.533 299.607C717.451 299.291 717.354 299.158 717.312 299.119C717.306 299.114 717.302 299.111 717.301 299.11C717.3 299.11 717.299 299.11 717.298 299.11C717.295 299.109 717.29 299.108 717.283 299.108C717.269 299.107 717.243 299.108 717.204 299.115ZM663.86 170.269C663.868 170.453 663.923 170.657 664.053 170.917C664.061 170.934 664.071 170.951 664.08 170.968C664.079 170.954 664.08 170.94 664.078 170.926C664.048 170.651 663.979 170.415 663.861 170.198C663.861 170.222 663.859 170.246 663.86 170.269Z" fill="#171A1F" stroke="#171A1F" stroke-width="2"/>
<path d="M466.018 194.761C467.32 194.763 468.424 194.951 469.399 195.513C470.371 196.074 471.1 196.939 471.784 198.069C472.463 199.19 473.151 200.663 473.994 202.514L475.303 205.368C478.369 212.014 481.534 218.563 485.07 224.936L485.157 224.971L485.312 225.385C485.52 225.937 485.705 226.537 485.875 227.037C486.009 227.431 486.144 227.799 486.302 228.146L486.468 228.487L486.479 228.51C491.188 238.15 495.907 247.79 500.627 257.43C505.347 267.071 510.067 276.712 514.775 286.352C520.755 298.578 526.606 310.906 532.535 323.166L533.357 324.787C533.636 325.333 533.917 325.884 534.187 326.424L534.329 326.708L534.28 327.023C534.277 327.047 534.277 327.062 534.277 327.069C534.284 327.079 534.312 327.116 534.394 327.168L534.498 327.226L534.815 327.385L534.962 327.708C535.721 329.382 536.48 331.068 537.238 332.753L539.514 337.795L539.58 337.939L539.598 338.098C539.775 339.72 539.455 341.081 538.564 342.121C537.699 343.131 536.418 343.691 534.977 344.004C529.386 345.221 523.681 345.722 518.155 346.429H518.15C516.365 346.65 514.885 346.426 513.591 345.725C512.319 345.036 511.329 343.94 510.419 342.61L510.413 342.601C508.286 339.422 506.684 336.019 505.206 332.626C503.717 329.208 502.368 325.839 500.713 322.594L500.712 322.594C486.647 294.955 473.384 266.91 459.91 239.025V239.024C459.692 238.575 459.522 238.089 459.373 237.672C459.216 237.232 459.077 236.851 458.903 236.509C458.75 236.206 458.577 235.95 458.356 235.741L458.228 236.26L454.358 232.391L456.604 232.964C456.584 232.911 456.562 232.857 456.537 232.802C456.427 232.552 456.295 232.309 456.137 232.011C455.987 231.729 455.817 231.4 455.682 231.049V231.048C452.267 222.492 447.76 214.546 443.582 206.234V206.233C442.456 204.004 441.923 201.999 442.715 200.353C443.506 198.708 445.406 197.872 447.838 197.354L447.846 197.352C452.252 196.453 456.742 195.78 461.171 195.198H461.173C463.148 194.943 464.73 194.76 466.018 194.761ZM523.944 322.251C523.731 322.129 523.47 322.088 523.054 322.26C522.565 322.469 522.467 322.703 522.445 322.871C522.414 323.113 522.502 323.569 522.984 324.225L523.297 324.66C524.238 326.001 525.052 327.48 525.46 329.255C525.601 328.788 525.692 328.334 525.736 327.888C525.871 326.524 525.591 325.139 524.927 323.577L524.792 323.296C524.479 322.686 524.178 322.384 523.944 322.251Z" fill="#171A1F" stroke="#171A1F" stroke-width="2"/>
<path d="M202.349 316.204C202.483 317.275 202.884 318.212 203.688 318.971C204.313 321.559 205.428 323.925 207.035 326.023C207.571 328.21 208.597 330.173 209.802 332.092C209.847 333.387 210.249 334.458 211.231 335.306C211.364 337.091 212.257 338.519 213.194 339.948C213.417 340.439 213.685 340.885 213.908 341.376C214.087 342.447 214.176 343.518 215.158 344.277C215.426 345.08 215.604 345.928 215.961 346.732C223.861 363.379 231.984 379.937 239.572 396.719C242.473 403.19 245.775 409.573 247.248 416.625C246.177 417.026 245.597 416.089 244.749 415.821C242.473 412.608 240.196 409.394 237.92 406.181C237.563 405.601 237.251 405.065 236.894 404.485C232.832 396.63 228.771 388.774 224.754 380.919C224.263 379 223.504 377.215 222.165 375.697C220.335 370.833 218.059 366.146 215.292 361.728C207.481 344.411 199.225 327.362 190.745 310.357C182.042 292.906 174.142 275.009 166.376 257.156C165.528 255.192 163.921 252.336 165.974 251.265C168.206 250.104 169.232 253.363 170.259 255.059C174.008 261.218 177.578 267.511 181.194 273.759C181.238 274.92 181.595 275.946 182.711 276.526C183.068 278.49 184.139 280.141 185.3 281.704C185.21 282.462 185.344 283.176 186.192 283.444C186.148 284.158 186.326 284.828 186.996 285.185C186.996 285.899 187.174 286.524 187.844 286.925C187.799 287.684 187.888 288.354 188.692 288.711C189.897 291.746 191.191 294.736 193.11 297.369C193.869 300.226 195.252 302.725 197.038 305.046C197.172 305.358 197.35 305.715 197.484 306.028C198.734 309.509 200.251 312.99 202.349 316.204Z" fill="#171A1F"/>
<path d="M381.366 461.524C372.484 463.086 364.093 466.344 355.435 468.62C352.802 469.334 350.213 470.45 347.356 469.825C347.758 469.067 348.16 468.308 348.606 467.549C353.114 464.559 358.023 462.595 363.201 461.033C374.849 457.552 386.454 453.937 398.058 450.411C398.46 450.366 398.817 450.366 399.218 450.321C400.691 450.187 402.209 450.054 403.414 449.027C403.994 448.893 404.529 448.759 405.11 448.625C418.544 445.68 431.933 442.734 445.367 439.788C445.68 439.922 445.947 439.833 446.171 439.61C451.571 439.476 456.748 438.003 462.015 437.066C489.552 432.246 516.867 426.131 544.672 422.828C546.011 423.096 547.663 422.605 548.243 424.48C542.351 427.113 535.835 427.336 529.81 429.478C528.962 429.657 528.114 429.791 527.311 429.969C524.186 430.505 521.062 430.907 517.983 431.532C502.763 434.611 487.321 436.753 472.28 440.859C471.7 440.949 471.164 441.038 470.584 441.127C470.316 441.127 470.004 441.127 469.736 441.127C468.754 440.949 467.862 441.127 466.969 441.618C466.433 441.707 465.898 441.797 465.362 441.886C464.782 441.975 464.202 442.109 463.622 442.198C460.676 442.288 457.73 442.555 455.008 443.894C454.383 444.028 453.713 444.118 453.088 444.251C444.296 445.501 435.638 447.42 427.113 449.875C426.801 449.92 426.488 450.009 426.176 450.054C423.766 450.321 421.445 450.723 419.258 451.883C418.633 452.062 418.008 452.196 417.339 452.374C417.026 452.419 416.714 452.419 416.357 452.464C414.527 452.598 412.742 452.865 411.179 453.892C401.628 455.32 392.434 457.953 383.285 460.988C382.571 460.899 381.946 461.033 381.366 461.524Z" fill="#171A1F"/>
<path d="M717.352 115.808C727.483 127.948 731.723 143.168 738.552 156.959C752.7 185.478 765.643 214.578 780.059 243.008C781.576 245.998 782.737 249.078 783.451 252.292C784.031 255.059 782.514 254.345 781.13 253.407C779.434 249.212 777.693 245.017 775.06 241.268C770.865 232.877 766.58 224.575 763.144 215.872C762.787 214.98 762.519 213.864 761.18 213.908C761.537 210.025 759.127 207.08 757.743 203.822C750.959 187.844 744.577 171.687 736.633 156.245C731.366 145.979 725.742 135.848 719.449 126.163C718.423 124.244 717.352 122.369 716.37 120.45C715.477 118.754 714.361 117.549 712.219 118.442C710.836 117.326 709.452 116.21 708.068 115.094C708.604 115.407 709.095 115.317 709.541 114.916C711.951 116.255 714.674 115.942 717.352 115.808Z" fill="#171A1F"/>
<path d="M151.781 228.86C144.551 225.289 142.899 218.416 142.275 211.409C140.98 197.171 146.113 185.121 155.753 174.856C156.334 174.231 157.226 171.553 158.788 174.231C158.61 174.811 158.431 175.391 158.208 175.927C153.522 184.318 151.692 193.512 151.156 203.018C151.022 203.598 150.933 204.134 150.799 204.714C150.13 212.926 151.692 220.603 156.467 227.432C155.977 231.315 153.254 228.101 151.781 228.86Z" fill="#171A1F"/>
<path d="M326.558 475.047C317.81 478.528 310.357 483.527 300.984 479.734C297.637 478.395 294.066 477.591 290.63 476.475C289.603 476.118 287.996 475.895 288.354 474.422C288.666 473.039 290.228 473.262 291.344 473.441C297.324 474.512 303.35 474.958 309.42 475.27C313.258 475.494 316.159 472.325 320.131 473.128C321.916 473.53 323.836 473.173 326.558 475.047Z" fill="#171A1F"/>
<path d="M740.873 472.503C739.935 470.986 739.311 469.558 740.025 467.638C742.435 460.944 744.711 454.249 747.032 447.51C747.657 445.724 748.639 444.162 750.736 444.698C753.012 445.323 752.031 447.287 751.807 448.715C751.584 450.411 751.093 452.107 750.736 453.803C748.728 458.98 746.675 464.157 744.666 469.334C743.997 471.209 743.283 472.86 740.873 472.503Z" fill="#171A1F"/>
<path d="M309.375 569.755C310.044 563.507 311.919 557.705 313.794 551.947C314.642 549.359 317.007 549.537 318.837 549.894C320.935 550.341 320.533 552.26 319.953 553.822C318.034 559.401 316.159 565.069 314.017 570.559C313.436 572.032 312.588 574.308 310.491 573.772C308.348 573.237 310.357 570.916 309.375 569.755Z" fill="#171A1F"/>
<path d="M822.191 330.486C826.386 337.716 828.886 345.393 828.082 353.917C827.904 355.97 826.297 356.327 824.646 356.595C823.664 355.122 824.378 353.56 824.333 351.998C824.289 349.633 825.226 346.598 820.718 347.044C818.665 347.222 818.71 345.214 819.111 343.473C820.227 339.144 821.165 334.815 822.191 330.486Z" fill="#171A1F"/>
<path d="M360.255 514.635C359.228 522.58 355.792 529.81 353.783 537.442C352.757 541.325 351.195 545.119 349.856 548.912C349.276 550.608 348.517 550.966 347.49 549.18C350.57 539.138 353.694 529.096 356.774 519.054C357.354 517.18 357.934 515.216 360.255 514.635Z" fill="#171A1F"/>
<path d="M332.628 567.078C334.636 561.276 334.77 554.447 338.162 548.511C338.653 547.663 339.189 546.369 340.305 546.726C341.777 547.172 341.376 548.645 341.108 549.716C339.457 555.875 338.341 562.168 336.065 568.149C335.663 569.22 335.217 570.559 333.744 570.202C332.539 569.934 332.762 568.64 332.628 567.078Z" fill="#171A1F"/>
<path d="M763.992 457.552C761.671 466.3 759.484 475.092 754.128 484.107C753.28 476.431 756.984 471.03 758.056 465.094L758.1 464.961C758.234 464.559 758.368 464.157 758.502 463.8L758.68 463.666L758.591 463.443C759.261 462.863 759.484 462.104 759.394 461.256C760.287 459.694 760.957 457.909 762.072 456.57C763.634 454.74 763.679 456.614 763.992 457.552Z" fill="#171A1F"/>
<path d="M329.682 552.304C328.7 555.339 328.209 558.642 326.603 561.32C323.568 566.274 323.478 572.389 320.042 577.119C319.417 578.012 318.703 579.619 317.453 578.592C316.114 577.476 317.766 576.539 318.39 575.825C323.746 570.023 323.032 561.989 325.933 555.295C326.469 554.134 326.692 552.795 327.227 551.635C327.495 551.055 328.12 550.385 328.968 550.787C329.593 551.055 329.638 551.68 329.682 552.304Z" fill="#171A1F"/>
<path d="M275.276 468.665C273.089 466.88 270.813 465.139 268.671 463.309C267.51 462.327 266.216 461.301 266.573 459.426C274.294 461.345 280.052 466.523 287.282 471.254C281.792 472.95 278.936 469.201 275.276 468.665Z" fill="#171A1F"/>
<path d="M291.612 431.442C290.585 432.603 289.96 434.12 288.22 434.522C285.765 435.102 283.578 434.79 282.105 432.603C280.052 429.568 282.284 427.559 283.98 425.462C287.773 424.658 290.139 426.399 291.656 429.702C291.656 430.326 291.612 430.862 291.612 431.442Z" fill="#171A1F"/>
<path d="M769.972 463.309C770.552 462.952 771.222 462.238 771.668 462.372C772.472 462.595 772.338 463.622 772.115 464.246C770.419 468.977 769.571 474.021 767.027 478.439C766.625 479.153 765.822 479.689 765.911 480.671C765.955 481.474 767.25 482.858 765.286 482.813C763.992 482.769 764.884 481.028 764.215 480.314C764.84 479.6 765.107 478.752 764.974 477.814C765.911 475.538 766.982 473.262 767.116 470.763C768.053 469.825 768.187 468.576 768.366 467.371C768.946 466.924 769.124 466.3 768.99 465.585L769.124 465.273C769.347 464.782 769.526 464.291 769.749 463.8C769.972 463.711 770.062 463.532 769.972 463.309Z" fill="#171A1F"/>
<path d="M802.33 290.005C799.742 291.79 796.618 292.103 793.761 293.085C791.128 293.977 789.477 291.879 789.119 289.782C788.629 286.925 791.173 287.952 792.735 287.729C794.922 287.461 797.019 287.595 799.072 288.309C800.099 289.023 802.197 287.639 802.33 290.005Z" fill="#171A1F"/>
<path d="M392.836 150.665C393.461 149.684 393.952 148.612 394.71 147.809C395.826 146.649 397.165 145.667 398.906 146.515C400.289 147.184 401.048 148.478 401.182 149.951C401.361 151.692 400.691 153.031 398.817 153.566C397.969 153.79 397.21 154.147 396.362 154.414C394.443 153.879 393.238 152.674 392.836 150.665Z" fill="#171A1F"/>
<path d="M217.3 225.87C216.542 227.744 215.069 228.146 213.417 228.101C211.677 228.012 210.695 226.941 210.873 225.289C211.007 223.772 212.48 222.969 213.73 223.326C215.069 223.683 216.72 224.174 217.3 225.87Z" fill="#171A1F"/>
<path d="M767.83 422.248C769.214 426.354 767.518 428.809 762.92 429.3C762.563 428.274 762.162 427.247 761.805 426.22C762.385 425.372 762.92 424.48 763.501 423.632C764.929 423.186 766.402 422.739 767.83 422.248Z" fill="#171A1F"/>
<path d="M735.919 494.105C735.294 490.936 736.678 488.214 737.883 485.446C738.24 484.688 738.775 483.84 739.802 484.241C740.784 484.643 740.828 485.625 740.605 486.428C739.757 489.151 739.311 492.052 737.436 494.328C736.901 494.284 736.41 494.194 735.919 494.105Z" fill="#171A1F"/>
<path d="M535.434 113.666C536.192 111.345 538.112 110.72 539.54 109.56C540.432 108.801 541.504 108.712 542.173 109.694C543.066 111.033 542.084 111.702 541.013 112.327C539.361 113.398 537.71 114.023 535.434 113.666Z" fill="#171A1F"/>
<path d="M305.85 447.822C304.6 447.599 303.172 447.376 303.35 445.59C303.484 444.385 304.243 443.314 305.626 443.448C307.233 443.582 308.483 444.475 308.483 446.171C308.527 447.688 307.188 447.822 305.85 447.822Z" fill="#171A1F"/>
<path d="M346.955 523.606C347.133 521.643 345.035 519.143 348.293 518.117C349.141 517.849 350.347 517.67 350.525 518.697C350.971 521.241 348.695 522.223 346.955 523.606Z" fill="#171A1F"/>
<path d="M709.05 100.187C708.47 102.329 705.212 100.901 704.854 103.356C704.006 102.999 702.712 103.177 702.578 101.883C702.444 100.633 703.471 100.232 704.453 100.009C705.97 99.607 707.577 98.268 709.05 100.187Z" fill="#171A1F"/>
<path d="M273.625 373.332C273.402 374.582 272.911 375.608 271.483 375.608C269.921 375.608 269.742 374.269 269.742 373.154C269.742 371.77 270.635 371.056 272.018 371.145C273.268 371.234 273.58 372.216 273.625 373.332Z" fill="#171A1F"/>
<path d="M724.046 377.706C723.823 379.045 722.975 379.446 721.814 379.223C720.654 379 719.359 378.554 719.449 377.126C719.493 375.965 720.475 375.385 721.636 375.697C722.707 376.01 723.957 376.233 724.046 377.706Z" fill="#171A1F"/>
<path d="M325.398 469.245C324.059 469.022 323.256 468.531 323.122 467.371C322.988 466.389 323.657 466.166 324.461 466.3C325.532 466.523 326.871 466.701 326.826 468.174C326.826 468.62 325.8 468.977 325.398 469.245Z" fill="#171A1F"/>
<path d="M818.219 396.139C816.478 396.05 815.005 397.701 813.131 396.987C814.336 396.005 815.452 394.889 816.746 394.041C817.371 393.639 818.397 393.015 819.022 393.907C819.647 394.844 818.576 395.425 818.219 396.139Z" fill="#171A1F"/>
<path d="M205.205 172.401C203.375 171.107 201.858 170.482 202.304 168.697C202.483 167.893 203.331 167.67 204.09 168.027C205.83 168.875 205.25 170.348 205.205 172.401Z" fill="#171A1F"/>
<path d="M761.939 381.41C762.966 381.634 763.546 381.991 763.412 382.839C763.233 383.82 762.609 384.267 761.627 384.133C760.868 384.044 760.288 383.597 760.422 382.749C760.556 381.901 761.27 381.5 761.939 381.41Z" fill="#171A1F"/>
<path d="M177.668 163.698C178.337 161.823 179.766 161.913 181.283 162.27C181.417 163.028 181.997 163.921 181.015 164.501C179.632 165.305 178.65 164.546 177.668 163.698Z" fill="#171A1F"/>
<path d="M295.405 588.545C295.495 587.608 295.985 586.983 296.967 586.938C297.994 586.894 298.529 587.742 298.574 588.545C298.619 589.75 297.458 589.482 296.744 589.661C295.896 589.884 295.45 589.393 295.405 588.545Z" fill="#171A1F"/>
<path d="M778.005 451.883C778.719 452.151 779.3 452.553 778.943 453.401C778.63 454.204 778.139 455.008 777.202 454.963C776.265 454.963 776.176 454.204 776.354 453.445C776.577 452.597 776.934 451.883 778.005 451.883Z" fill="#171A1F"/>
<path d="M116.79 260.236C116.969 260.548 117.37 260.95 117.281 261.173C117.058 261.843 116.522 261.709 116.031 261.396C116.254 260.995 116.522 260.638 116.79 260.236Z" fill="#171A1F"/>
<path d="M381.012 211.348C382.771 211.276 384.382 211.561 385.766 212.324C387.155 213.091 388.237 214.297 389.005 215.927L389.812 217.606C391.408 220.957 392.915 224.273 394.524 227.6L395.339 229.264L395.342 229.271C402.282 243.568 409.392 257.854 416.214 272.24L417.574 275.118V275.12C424.897 290.748 431.91 306.515 439.046 322.215L439.187 322.531C439.322 322.849 439.444 323.165 439.56 323.465C439.717 323.873 439.863 324.251 440.026 324.616C440.349 325.339 440.715 325.947 441.262 326.441L441.463 326.623L441.545 326.881C442.027 328.406 442.399 329.49 442.776 330.272C443.149 331.043 443.477 331.412 443.814 331.616C444.156 331.823 444.645 331.945 445.517 331.932C446.395 331.919 447.532 331.774 449.104 331.549C461.345 329.752 473.696 326.908 486.199 325.676L487.41 325.562C488.951 325.418 490.316 325.565 491.526 326.14C492.74 326.716 493.695 327.674 494.501 328.966C496.924 332.768 499.336 336.668 500.842 341.084L501.131 341.975V341.976C501.605 343.523 501.929 344.856 502.022 346.001C502.117 347.157 501.983 348.203 501.459 349.112C500.934 350.021 500.094 350.662 499.032 351.154C497.98 351.64 496.642 352.012 495.024 352.352H495.023C488.176 353.784 481.245 354.777 474.416 355.974H474.412C460.519 358.341 446.656 360.571 432.831 363.157L432.83 363.156C430.244 363.649 428.132 363.473 426.396 362.414C424.682 361.368 423.517 359.57 422.571 357.24L422.569 357.235C406.382 316.833 387.431 277.681 368.945 238.21L368.944 238.209C366.126 232.169 363.368 226.074 360.471 220.102C359.734 218.583 359.325 217.042 359.858 215.73C360.421 214.344 361.833 213.654 363.619 213.367L365.768 213.021C370.789 212.225 375.878 211.546 381.012 211.348Z" fill="#171A1F" stroke="#171A1F" stroke-width="2"/>
<path d="M570.558 419.57C571.094 421.311 573.192 423.319 570.201 424.569C568.505 425.283 566.497 426.488 564.578 424.703C563.864 424.033 563.596 423.051 564.131 422.382C565.738 420.329 567.523 418.41 570.558 419.57Z" fill="#171A1F"/>
<path d="M110.318 204.357L115.094 190.298C116.522 186.103 118.575 182.086 121.164 178.471C123.038 175.838 125.181 173.427 127.546 171.285L130.849 168.295C132.768 166.554 134.821 164.947 136.963 163.564L139.954 161.645C143.167 159.592 146.604 157.94 150.174 156.735L152.495 155.932C153.298 155.664 154.102 155.396 154.95 155.173L161.511 153.388L141.293 175.927L110.318 204.357Z" fill="#171A1F"/>
<path d="M232.564 612.646C235.733 613.583 238.59 615.19 249.48 616.351C253.943 616.841 259.79 616.484 261.575 616.172L333.699 602.649L416.312 586.447L568.952 558.151L665.802 538.959L752.968 519.813C766.357 516.867 779.033 511.466 790.458 503.924L797.956 498.434L803.535 492.989L798.626 491.605L785.46 503.656L770.999 509.19L414.215 582.386L263.092 612.914L245.909 613.092L235.689 612.155L232.564 612.646Z" fill="#171A1F"/>
<path d="M284.917 130.671L641.032 62.9645C641.032 62.9645 664.374 58.3229 686.824 67.6955L683.565 71.8908L662.499 65.687L632.641 69.7931L620.144 77.0681L593.722 83.2272L523.115 97.1523L420.106 113.8L265.993 143.301L284.917 130.671Z" fill="#171A1F"/>
<path d="M720.788 92.2875C720.788 92.2875 724.939 96.3936 737.748 121.119L786.753 218.55L844.73 336.288L822.236 301.118L765.018 192.217L732.526 120.495L720.788 92.2875Z" fill="#171A1F"/>
<path d="M112.437 198.718L85.3125 282.45L88.2608 283.629L119.316 213.656L112.437 198.718Z" fill="#171A1F" stroke="#171A1F" stroke-width="0.446315"/>
</svg>
