<svg width="32" height="32" viewBox="0 0 32 32" fill="none" xmlns="http://www.w3.org/2000/svg">
  <rect width="32" height="32" rx="6" fill="#9333EA"/>
  <path d="M8 12C8 10.8954 8.89543 10 10 10H22C23.1046 10 24 10.8954 24 12V12C24 13.1046 23.1046 14 22 14H10C8.89543 14 8 13.1046 8 12V12Z" fill="white"/>
  <path d="M10 18C10 16.8954 10.8954 16 12 16H22C23.1046 16 24 16.8954 24 18V18C24 19.1046 23.1046 20 22 20H12C10.8954 20 10 19.1046 10 18V18Z" fill="white" opacity="0.8"/>
  <path d="M12 24C12 22.8954 12.8954 22 14 22H22C23.1046 22 24 22.8954 24 24V24C24 25.1046 23.1046 26 22 26H14C12.8954 26 12 25.1046 12 24V24Z" fill="white" opacity="0.6"/>
</svg> 